<svg xmlns="http://www.w3.org/2000/svg">
<defs>
<font id="UTMCaviar" horiz-adv-x="1259" >
  <font-face 
    font-family="UTM Caviar"
    font-weight="300"
    font-stretch="normal"
    units-per-em="2048"
    panose-1="2 4 6 3 5 5 6 2 2 4"
    ascent="1638"
    descent="-410"
    x-height="935"
    cap-height="1516"
    bbox="-74 -372 4942 2327"
    underline-thickness="109"
    underline-position="-467"
    unicode-range="U+000D-25FC"
  />
<missing-glyph horiz-adv-x="5040" 
d="M3351 2045h10q37 -10 37 -52q0 -12 -32 -57h-28q0 24 28 54l2 10q-5 13 -10 15h-9q-8 0 -10 -19h-30q6 49 42 49zM2019 2016l29 -31q0 -16 -40 -30h-19l-59 12l-11 -12l-28 25q11 29 43 29h11l42 -11h2q10 0 30 18zM468 1980h142v-60h-94v-75h89v-59h-89v-129l-5 -5h-49
v323zM1155 1980h43l6 -5v-78h30v-52h-30v-188l-6 -5h-49v193h-25v52h25v78zM1621 1980h42l4 -5v-94h3q23 24 54 24h2q58 0 83 -71l2 -39v-143h-52v115q0 80 -42 80h-7q-43 0 -43 -86v-109h-51v323zM2200 1980h49l5 -5v-222q10 -51 45 -51q44 7 44 59v214l5 5h49v-216
q0 -85 -66 -112q-15 -8 -35 -8q-47 0 -82 55q-14 24 -14 57v224zM2435 1980h159v-60h-56v-268h-53v268h-55v55zM2621 1980h71q7 -4 83 -251h2l80 251h73v-328h-54v242h-2l-74 -242h-44q-4 0 -58 182l-19 60h-3v-242h-55v328zM3760 1980h52v-328h-45l-5 5v11l3 2l-3 14
q-29 -40 -78 -40q-67 0 -100 91l-5 39v3q0 94 92 125l23 3q35 0 63 -32h3v107zM2057 1928h36l4 -6v-49h-45v-221h-48v23q-23 -31 -59 -31q-89 14 -89 97v156h51v-104q0 -79 26 -86l18 -5h6q26 0 39 36l3 26v133h53v25zM3476 1928v-55h-31v-221h-47v25h-2q-15 -33 -57 -33
q-68 0 -86 78l-3 29v146h52v-120q0 -50 19 -68l21 -7h9q42 0 42 69v126h27q4 0 4 28l3 3h49zM758 1905q68 0 103 -77q9 -18 12 -54q0 -88 -90 -127l-32 -3q-63 0 -101 73q-12 22 -12 52v10q0 94 101 126h19zM1011 1905h3q74 0 83 -101v-152h-51v119q0 76 -42 76h-5
q-44 0 -44 -76v-119h-52v245h46v-21q30 29 62 29zM1466 1905h7q72 0 105 -89h-60q-16 31 -42 31h-17q-53 -14 -53 -61l-3 -15q12 -69 61 -69h9q22 0 47 27h40l2 3h3l2 -3l2 3l3 -3l2 3l2 -7q-33 -81 -110 -81q-76 0 -110 94l-4 36v3q0 85 77 120q15 8 37 8zM3141 1905h2

<glyph glyph-name=".notdef" horiz-adv-x="5040" 
d="M3351 2045h10q37 -10 37 -52q0 -12 -32 -57h-28q0 24 28 54l2 10q-5 13 -10 15h-9q-8 0 -10 -19h-30q6 49 42 49zM2019 2016l29 -31q0 -16 -40 -30h-19l-59 12l-11 -12l-28 25q11 29 43 29h11l42 -11h2q10 0 30 18zM468 1980h142v-60h-94v-75h89v-59h-89v-129l-5 -5h-49
v323zM1155 1980h43l6 -5v-78h30v-52h-30v-188l-6 -5h-49v193h-25v52h25v78zM1621 1980h42l4 -5v-94h3q23 24 54 24h2q58 0 83 -71l2 -39v-143h-52v115q0 80 -42 80h-7q-43 0 -43 -86v-109h-51v323zM2200 1980h49l5 -5v-222q10 -51 45 -51q44 7 44 59v214l5 5h49v-216
q0 -85 -66 -112q-15 -8 -35 -8q-47 0 -82 55q-14 24 -14 57v224zM2435 1980h159v-60h-56v-268h-53v268h-55v55zM2621 1980h71q7 -4 83 -251h2l80 251h73v-328h-54v242h-2l-74 -242h-44q-4 0 -58 182l-19 60h-3v-242h-55v328zM3760 1980h52v-328h-45l-5 5v11l3 2l-3 14
q-29 -40 -78 -40q-67 0 -100 91l-5 39v3q0 94 92 125l23 3q35 0 63 -32h3v107zM2057 1928h36l4 -6v-49h-45v-221h-48v23q-23 -31 -59 -31q-89 14 -89 97v156h51v-104q0 -79 26 -86l18 -5h6q26 0 39 36l3 26v133h53v25zM3476 1928v-55h-31v-221h-47v25h-2q-15 -33 -57 -33
q-68 0 -86 78l-3 29v146h52v-120q0 -50 19 -68l21 -7h9q42 0 42 69v126h27q4 0 4 28l3 3h49zM758 1905q68 0 103 -77q9 -18 12 -54q0 -88 -90 -127l-32 -3q-63 0 -101 73q-12 22 -12 52v10q0 94 101 126h19zM1011 1905h3q74 0 83 -101v-152h-51v119q0 76 -42 76h-5
q-44 0 -44 -76v-119h-52v245h46v-21q30 29 62 29zM1466 1905h7q72 0 105 -89h-60q-16 31 -42 31h-17q-53 -14 -53 -61l-3 -15q12 -69 61 -69h9q22 0 47 27h40l2 3h3l2 -3l2 3l3 -3l2 3l2 -7q-33 -81 -110 -81q-76 0 -110 94l-4 36v3q0 85 77 120q15 8 37 8zM3141 1905h2
q49 0 70 -60v-14h-52q0 16 -16 16h-4q-14 0 -19 -13v-13q0 -9 68 -35q30 -19 30 -59q0 -58 -61 -80l-23 -3q-76 12 -76 83h54q0 -20 27 -25h4q19 0 24 23q0 22 -68 44q-34 27 -34 59q0 66 74 77zM4203 1905q55 0 77 -63q7 -18 7 -65v-125h-52v112q0 83 -40 83h-11
q-33 0 -40 -54v-141h-52v5h-2l2 2v238h47v-21q25 29 64 29zM4432 1905h5q40 0 69 -40v18l-3 3l3 11h47v-208q0 -97 -85 -132l-33 -4h-7q-70 0 -104 80h59q24 -22 45 -23h13q22 0 43 22q15 13 22 52h-3q-32 -40 -73 -40q-57 0 -96 70q-10 18 -14 63q0 88 87 125zM3851 1897
h53v-136q6 -59 40 -59h7q46 0 46 93v102h51v-245h-47l-3 10h3l-3 3v5l3 2v3h-4q0 -23 -57 -31h-3q-59 0 -84 75l-2 85v93zM690 1771q10 -69 63 -69h7q59 14 59 65v15q-13 65 -59 65h-5q-58 0 -65 -76zM3630 1774q13 -72 61 -72h5q58 0 66 75q0 49 -51 70h-22q-37 0 -56 -57z
M4374 1774q8 -72 65 -72h5q59 12 59 72q0 61 -59 73h-14q-56 -16 -56 -62v-11zM3928 1620h52v-57h-52v57zM1054 1402q43 -11 43 -49v-4q0 -17 -32 -60h-28q0 25 31 57v7q0 12 -7 15h-12q-10 -4 -10 -19h-28v6q0 32 33 44zM3349 1339q92 0 138 -99h-60q-37 42 -80 42
q-55 0 -87 -68q-10 -22 -10 -47q0 -78 81 -110l18 -1q36 0 75 39h61q-44 -97 -138 -97q-93 0 -141 112q-10 31 -10 62q0 97 90 152q29 15 63 15zM3664 1339q57 0 103 -47q46 -51 46 -115v-20q0 -89 -91 -146q-33 -13 -63 -13q-89 0 -138 101q-13 33 -13 60v18q0 98 98 151
q29 11 58 11zM2261 1337h2l47 -11h3q11 0 26 11l18 -36q-18 -19 -35 -19h-3l-54 10l-20 -7l-20 36q18 16 36 16zM716 1334h19q118 0 129 -26q25 -26 25 -62q-10 -57 -30 -57v-6q47 -23 47 -66v-18q0 -63 -69 -88l-54 -5h-67v328zM2550 1334h53v-217q6 -61 45 -61q29 0 44 39
l3 30v203l4 6h45l5 -6v-171q0 -118 -40 -133q-24 -26 -64 -26q-55 0 -91 76l-4 54v206zM2805 1334h59q4 0 122 -237h4v237h50l4 -6v-322h-58q-29 48 -125 238h-3v-238h-53v328zM3101 1334h54v-328h-54v328zM3859 1334h8q155 0 174 -40q23 -11 47 -75l4 -36v-11l3 -2
q0 -94 -82 -149q-35 -15 -99 -15h-55v328zM4141 1334h153v-60h-103v-75h101v-57h-101v-74l4 -5h99v-57h-157v322zM3563 1175v-10q0 -76 79 -108l19 -1q68 0 96 86l3 20v15q0 61 -60 94q-12 8 -39 11q-66 0 -96 -83zM770 1274v-67h9q54 0 54 28l3 14q-11 25 -29 25h-37z
M3912 1274v-206l2 -3v-2q104 0 122 76l2 15v29q0 34 -32 68q-25 23 -78 23h-16zM1041 1259h5q38 0 71 -40v32h49v-245h-49v32q-36 -40 -80 -40q-75 0 -101 97l-5 36q0 89 85 125zM1314 1259h3q74 0 83 -102v-151h-51v128q0 67 -42 67h-10q-34 0 -39 -62v-133h-52v245h47v-21
q28 29 61 29zM1543 1259h5q45 0 71 -40v32h47v-219q0 -95 -104 -126h-16q-74 0 -108 82h59q26 -25 44 -25h14q52 0 64 77q-33 -42 -76 -42q-60 0 -101 81l-7 44v16q0 79 85 117zM1912 1259h2q43 0 61 -37h2q32 37 69 37h4q57 0 79 -55q8 -25 8 -45v-153h-52v138q0 44 -23 55
l-12 2h-15q-32 0 -36 -65v-130h-52v136q0 59 -43 59h-8q-32 0 -36 -57v-138h-54v245h50v-21h2q6 24 54 29zM2282 1259q47 0 75 -42v34h47v-245h-47v32q-36 -40 -78 -40q-74 0 -102 92l-6 41q0 90 85 125zM985 1117q0 -48 61 -61h4q45 0 62 46l3 15v22q-12 62 -57 62h-14
q-41 0 -59 -57v-27zM1487 1128q0 -48 43 -68l18 -4h5q47 0 63 57v23q-11 65 -58 65h-12q-50 0 -59 -73zM2225 1131v-14q15 -61 57 -61h14q58 12 58 64v11q0 45 -37 65l-18 5h-10q-64 -8 -64 -70zM770 1150v-82q0 -5 7 -5q77 0 77 45q0 34 -47 42h-37zM2966 753l24 -28
l-51 -55q-18 12 -27 26zM1524 727l85 -54q0 -15 -21 -42l-87 54q18 41 23 42zM2850 693h38l55 -60h-54l-21 26l-23 -26h-54q54 60 59 60zM3422 693h40l56 -60h-54l-24 26h-1q0 -5 -19 -26h-54zM622 685h52q8 -4 47 -137l34 -110q9 8 34 100l48 147h54v-2l-112 -326h-44z
M1159 685h51v-54h-51v54zM1354 685h46l6 -5v-323h-52v328zM2317 685h45l4 -5v-78h31v-52h-31v-193h-53v193h-26v52h26v78zM2425 685h52v-98h2q23 23 54 23h3q57 0 81 -71l3 -38v-144h-52v115q0 81 -39 81h-10q-42 0 -42 -87v-109h-52v328zM2664 685h52v-54h-52v54zM3028 685
h44l6 -5v-78h29v-52h-29v-193h-54v193h-27v52h27v78zM3234 685h52v-328h-52v328zM3957 685h52v-328h-52v328zM4316 685h51v-54h-51v54zM1555 610h5q83 0 110 -102l3 -23v-11q0 -83 -85 -120l-35 -5q-76 0 -111 97l-4 32q0 97 93 130zM1811 610h4q53 0 78 -60q7 -25 7 -81
v-112h-54v146q-7 50 -37 50h-10q-38 0 -42 -57v-139h-54v245h49v-21q26 29 59 29zM2046 610h4q45 0 63 -39h3v31h49v-206q0 -102 -89 -135l-28 -3h-5q-73 0 -106 81h52l37 -20l15 -3h14q50 0 61 72q-33 -39 -73 -39q-62 0 -98 76q-11 23 -12 60q0 85 86 123zM2866 610h2
q82 0 111 -104l2 -25l-2 -27h-172q15 -45 45 -45l14 -3q29 0 49 22h57v-3q-35 -76 -108 -76q-77 0 -111 97l-1 28v8q0 49 32 89q34 39 82 39zM3429 610h5q41 0 70 -39h2v31h47v-245h-47v31h-2q-35 -39 -77 -39q-71 0 -101 89l-5 36v14q0 86 84 120zM3711 610h7
q88 0 107 -128l-2 -1v-15q0 -65 -66 -106q-21 -11 -46 -11q-34 0 -64 32v-99l-5 -5h-49v325h49v-28q31 36 69 36zM4151 610q44 0 75 -39v31h49v-245h-49v31q-35 -39 -77 -39q-92 0 -108 132q0 84 73 121q15 8 37 8zM922 602h50v-136q3 -60 42 -60h5q44 0 44 87v109h52v-245
h-47v24h-5q0 -23 -56 -32h-3q-55 0 -82 68q-4 35 -4 99v81zM1159 602h51v-245h-51v245zM2664 602h52v-245h-52v245zM4316 602h51v-245h-51v245zM1492 488v-16q13 -66 59 -66h4q59 0 66 76q-13 71 -59 71h-11q-59 -16 -59 -65zM1987 472q15 -66 59 -66h11q48 0 59 75v1
q-13 71 -59 71h-14q-39 0 -56 -57v-24zM2805 506h122v2q-16 45 -59 45h-7q-35 0 -56 -47zM3373 474q13 -68 61 -68h5q52 0 65 63v12q-10 72 -57 72h-16q-56 -14 -56 -63zM3642 478q12 -72 61 -72h3q50 0 65 60v22q0 43 -49 65h-22q-47 0 -58 -72v-3zM4095 472q10 -66 66 -66
q43 0 61 48l2 15v16q0 54 -52 68h-18q-42 0 -59 -60v-21zM3416 321h51v-52h-51v52zM4137 321h51v-52h-51v52zM2733 133h4q35 0 43 -50v-2q0 -16 -24 -41l-10 -17h-28q0 25 28 56l3 2v2q-3 19 -9 19h-10q-8 0 -9 -19h-30q6 50 42 50zM1546 116l52 -60l-26 -19l-52 52zM352 79
h4q75 -48 85 -60l-20 -37q-88 49 -88 58zM3490 79l86 -58l-18 -39q-10 0 -91 55q15 36 23 42zM4578 76l19 -42l-91 -52l-20 39l92 58v-3zM1204 53h51v-19l5 -5h14v-36h-14l-5 -5v-279h-46v31q-34 -40 -81 -40q-72 0 -102 105l-3 26q0 102 101 131h14q33 0 66 -33v59l-6 5
h-43v36h49v24zM1480 45h40l56 -61h-53l-23 27l-23 -27h-53zM2641 45h33q12 0 63 -61h-54l-23 27q-19 -21 -19 -27h-58v4zM49 37h160v-60h-56v-268h-50l-4 5v245l2 3v2l-2 2l2 3l-2 2l2 3l-2 3h-54v54zM699 37h47v-73l2 -2l-2 -3v-3l2 -2l-2 -3v-3l2 -2v-2l-2 -3l2 -3h3
q17 24 51 24h3q53 0 77 -58q7 -17 7 -42v-153h-52v127q0 68 -40 68h-8q-43 0 -43 -86v-109h-52v322zM1297 37h47l5 -6v-49h-52v55zM1987 37h52v-198l70 115h62l-78 -118l90 -125v-2h-70q-10 22 -74 115v-115h-52v328zM2271 37v-99q24 24 53 24q57 0 80 -56q10 -19 10 -77
v-120h-54v133q0 62 -41 62h-11q-31 0 -37 -55v-140h-53v314l-1 3v3l1 2l-1 3l1 3h53zM2458 37h51v-55h-51v55zM3148 37h51v-108q27 33 68 33h3q75 0 105 -94l5 -37q0 -75 -64 -120q-30 -11 -49 -11q-41 0 -72 40v-31h-47v328zM4275 37h52v-99h2q23 24 54 24h3q60 0 82 -74
l2 -41v-138h-52v111q0 82 -32 82l-10 2h-12q-37 0 -37 -80v-115h-52v328zM329 -38h3v-58h-5q-42 0 -42 -57v-138h-53v245h47v-21q18 29 50 29zM564 -38q71 0 86 -87v-166h-51v136q-6 59 -41 59h-6q-45 0 -45 -84v-111h-52v245h50v-21q25 29 59 29zM1504 -38q72 0 105 -94
l5 -39q-2 -24 -7 -24h-169q17 -47 62 -47q24 0 48 21h57q-33 -79 -108 -79q-82 0 -113 105v37q0 81 89 117zM2657 -38h5q77 0 107 -97l3 -26v-21l-3 -13h-170q18 -47 53 -47h12q21 0 42 21h59q-34 -79 -105 -79q-84 0 -115 102l-2 29q0 93 91 128zM2915 -38h4q54 0 78 -60
q7 -25 7 -82v-111h-54v138q0 48 -35 57h-11q-38 0 -43 -57v-138h-54v245h50v-21q25 29 58 29zM3508 -38h6q40 0 70 -40h2v32h47v-245h-47v31h-2q-34 -40 -78 -40q-71 0 -101 90l-4 37v12q0 82 77 117q11 6 30 6zM3781 -38h4q62 0 82 -78l3 -84v-91h-54v138q0 48 -38 57h-9
q-38 0 -42 -52v-143h-54v245h49v-21q26 29 59 29zM4133 -38h1q74 0 104 -93l4 -40q0 -88 -84 -126l-25 -3q-41 0 -68 34v-106h-52v326h47v-29q30 37 73 37zM4714 -38h5q34 0 63 -37q27 37 69 37h6q56 0 79 -66l6 -51v-136h-52v122q0 73 -39 73h-7q-35 0 -41 -50v-140l-5 -5
h-48v140q0 42 -31 55h-17q-40 0 -40 -77v-118h-51v245h47v-21q22 29 56 29zM359 -46h49l5 -6v-234l-5 -5h-49v245zM1297 -46h52v-245h-52v245zM1649 -46h52v-136q4 -60 43 -60h4q44 0 44 81v115h52v-245h-47v24h-5q-12 -33 -59 -33q-52 0 -79 63q-5 12 -5 34v157zM2458 -46
h51v-245h-51v245zM4515 -46h51v-245h-51v245zM1077 -169q0 -53 51 -73h12q54 0 66 66v10q0 53 -54 70h-17q-38 0 -58 -57v-16zM1438 -143h122q-18 47 -53 47h-7q-43 0 -62 -44v-3zM2599 -143h122q-21 47 -54 47h-7q-46 0 -61 -47zM3196 -158v-11q10 -73 61 -73h5q64 8 64 71
v5q0 45 -38 65l-18 5h-14q-60 -14 -60 -62zM3452 -173q14 -69 62 -69h11q41 0 59 60v13q-8 73 -56 73h-17q-47 0 -59 -73v-4zM4062 -158v-22q0 -47 59 -62h9q50 0 61 76q-13 70 -58 70h-15q-56 -17 -56 -62z" />
    <glyph glyph-name=".null" horiz-adv-x="0" 
 />
    <glyph glyph-name="nonmarkingreturn" horiz-adv-x="2048" 
 />
    <glyph glyph-name="uni000D" unicode="&#xd;" horiz-adv-x="571" 
 />
    <glyph glyph-name="space" unicode=" " horiz-adv-x="708" 
 />
    <glyph glyph-name="exclam" unicode="!" horiz-adv-x="460" 
d="M304 165.5q31 -30.5 31 -73.5q0 -44 -31 -74.5t-74 -30.5t-74 30.5t-31 74.5q0 43 31 73.5t74 30.5t74 -30.5zM291 1516v-1262h-126v1262h126z" />
    <glyph glyph-name="quotedbl" unicode="&#x22;" horiz-adv-x="593" 
d="M125 917v596h127v-596h-127zM341 917v596h127v-596h-127z" />
    <glyph glyph-name="numbersign" unicode="#" horiz-adv-x="1598" 
d="M768 950h167l102 410h128l-102 -410h409l-32 -127h-409l-42 -167h410l-33 -127h-409l-102 -409h-128l102 409h-166l-102 -409h-129l103 409h-410l32 127h410l41 167h-409l32 127h409l102 410h129zM903 823h-167l-41 -167h166z" />
    <glyph glyph-name="dollar" unicode="$" horiz-adv-x="992" 
d="M566 775v-554q60 9 124 74q80 80 80 194t-80 194q-65 65 -124 92zM439 1296q-24 -4 -62 -42q-49 -49 -49 -119t48 -119q37 -36 63 -51v331zM439 827q-86 38 -150 102q-85 85 -85 206q0 119 85 204q72 73 150 82v152h127v-155q69 -12 136 -78q47 -46 74 -127l-112 -45
q-22 59 -50 87q-33 32 -48 36v-384q116 -45 211 -138q116 -116 116 -280q0 -165 -116 -281q-99 -98 -211 -112v-131h-127v130q-120 9 -224 113q-93 93 -115 238l119 43q13 -126 83 -195q69 -69 137 -76v609z" />
    <glyph glyph-name="percent" unicode="%" horiz-adv-x="1180" 
d="M1078 1236l-870 -1242l-105 72l870 1242zM480.5 1093.5q68.5 -68.5 68.5 -166.5q0 -97 -68.5 -165.5t-165.5 -68.5q-98 0 -166.5 68.5t-68.5 165.5q0 98 68.5 166.5t166.5 68.5q97 0 165.5 -68.5zM315 1038q-47 0 -79 -32.5t-32 -78.5t32 -78t79 -32q45 0 77.5 32
t32.5 78t-32.5 78.5t-77.5 32.5zM1032.5 541.5q68.5 -68.5 68.5 -166.5q0 -97 -68.5 -165.5t-165.5 -68.5q-98 0 -166.5 68.5t-68.5 165.5q0 98 68.5 166.5t166.5 68.5q97 0 165.5 -68.5zM867 486q-47 0 -79 -32.5t-32 -78.5t32 -78t79 -32q45 0 77.5 32t32.5 78t-32.5 78.5
t-77.5 32.5z" />
    <glyph glyph-name="ampersand" unicode="&#x26;" horiz-adv-x="1257" 
d="M842 314l-6 4q-47 27 -115 98q-42 38 -58 47q-15 8 -30 8q-9 0 -17 -2q-24 -7 -36 -28q-9 -16 -9 -30q0 -8 3 -17q6 -24 25 -34q12 -7 37 -7q15 0 63 6l-13 -118q-40 -11 -66 -11q-43 0 -83 22q-63 35 -83 109q-7 26 -7 50q0 46 25 90q38 67 111 87q26 7 51 7
q47 0 89 -25q40 -22 101 -85q50 -47 73 -59q23 -13 46 -13q14 0 28 4q39 10 59 45q13 24 13 48q0 12 -4 26q-10 38 -45 59q-21 11 -47 11q-20 0 -71 -14l-2 127q45 13 74 13q55 0 107 -29q79 -45 104 -134q8 -31 8 -59q0 -57 -30 -108q-45 -80 -134 -104q-27 -7 -36 -8
q-27 -89 -110 -172q-134 -135 -324 -135q-189 0 -323.5 134t-134.5 325q0 189 132 329q90 97 179 127q-18 7 -92 86t-74 217q0 136 97.5 234t236.5 98q138 0 236 -97q55 -52 82 -138l-114 -45q-23 61 -57 96q-61 60 -147 60q-85 0 -146 -60.5t-61 -147.5q0 -86 60 -150
t111 -83.5t152 -20.5v-120l-86 -3q-192 -36 -288 -140.5t-96 -241.5q0 -139 97.5 -236.5t235.5 -97.5q137 0 235 98q57 57 74 108z" />
    <glyph glyph-name="quotesingle" unicode="'" horiz-adv-x="377" 
d="M125 917v596h127v-596h-127z" />
    <glyph glyph-name="parenleft" unicode="(" horiz-adv-x="707" 
d="M607 1506q-132 -61 -229 -183q-162 -204 -162 -565q0 -362 162 -566q97 -122 229 -186v-123q-190 66 -315 223q-192 239 -192 652q0 412 192 652q125 157 315 223v-127z" />
    <glyph glyph-name="parenright" unicode=")" horiz-adv-x="707" 
d="M100 1633q190 -66 314 -223q193 -240 193 -652q0 -413 -193 -652q-124 -157 -314 -223v123q132 64 229 186q162 204 162 566q0 361 -162 565q-97 122 -229 183v127z" />
    <glyph glyph-name="asterisk" unicode="*" horiz-adv-x="818" 
d="M472 1338l144 100l73 -104l-170 -119l170 -119l-73 -104l-144 101v-176h-126v177l-145 -102l-73 104l170 119l-170 119l73 104l145 -101v176h126v-175z" />
    <glyph glyph-name="plus" unicode="+" horiz-adv-x="1030" 
d="M452 503h-327v127h327v327h126v-327h327v-127h-327v-326h-126v326z" />
    <glyph glyph-name="comma" unicode="," horiz-adv-x="421" 
d="M321 197l-191 -398h-120l107 398h204z" />
    <glyph glyph-name="hyphen" unicode="-" horiz-adv-x="837" 
d="M125 630h587v-127h-587v127z" />
    <glyph glyph-name="period" unicode="." horiz-adv-x="410" 
d="M279 165.5q31 -30.5 31 -73.5q0 -44 -31 -74.5t-74 -30.5t-74 30.5t-31 74.5q0 43 31 73.5t74 30.5t74 -30.5z" />
    <glyph glyph-name="slash" unicode="/" horiz-adv-x="729" 
d="M636 1516h143l-687 -1516h-142z" />
    <glyph glyph-name="zero" unicode="0" horiz-adv-x="1206" 
d="M999 989q0 164 -116 279.5t-280 115.5t-280 -115.5t-116 -279.5v-488q0 -164 116 -279t280 -115t280 115t116 279v488zM1130 501q0 -218 -154 -372.5t-373 -154.5q-218 0 -372.5 154.5t-154.5 372.5v488q0 218 154.5 372.5t372.5 154.5q219 0 373 -154.5t154 -372.5v-488
z" />
    <glyph glyph-name="one" unicode="1" horiz-adv-x="1302" 
d="M769 1516v-1516h-127v1327h-110l147 189h90z" />
    <glyph glyph-name="two" unicode="2" horiz-adv-x="1220" 
d="M358 435.5q156 116.5 272 204t212.5 193t96.5 241.5q0 138 -96.5 234.5t-233.5 96.5q-136 0 -233 -97q-83 -83 -98 -225l-127 46q25 163 132 271q135 136 326 136t326 -135t135 -327q0 -189 -132 -331q-87 -94 -204.5 -182t-264.5 -198q-139 -104 -168 -236h769v-127
h-915q47 319 203 435.5z" />
    <glyph glyph-name="three" unicode="3" horiz-adv-x="1220" 
d="M558 822l-89 2v126q103 1 153.5 20.5t110 82.5t59.5 148q0 86 -60 145.5t-144 59.5t-145 -59q-33 -34 -57 -98l-119 47q28 89 83 142q99 98 238 98q140 0 238 -99t98 -236q0 -139 -74.5 -219t-84.5 -84q81 -27 173 -125q132 -142 132 -331q0 -192 -135 -327t-326 -135
t-326 136q-107 108 -132 271l127 46q15 -142 98 -225q97 -97 233 -97q137 0 233.5 96.5t96.5 234.5q0 136 -95 240t-286 140z" />
    <glyph glyph-name="four" unicode="4" horiz-adv-x="1238" 
d="M806 1516h117v-959h141v-126h-141v-431h-127v431h-623zM796 1236l-403 -679h403v679z" />
    <glyph glyph-name="five" unicode="5" horiz-adv-x="1219" 
d="M333 1071q4 2 63 15q61 10 118 10q105 0 202 -33q216 -74 321 -272q66 -123 66 -253q0 -80 -25 -162q-66 -215 -265 -322q-120 -64 -249 -64q-82 0 -166 26q-172 52 -281 201l90 99q89 -133 230 -175q63 -20 124 -20q98 0 190 49q152 81 202 245q19 63 19 124
q0 98 -49 191q-81 151 -246 209q-71 24 -156 24q-114 0 -265 -48l-87 76l173 477v48h504v-127h-397z" />
    <glyph glyph-name="six" unicode="6" horiz-adv-x="1207" 
d="M211 501q0 -164 115.5 -279t279.5 -115t280 115t116 279t-116 280t-280 116t-279.5 -116t-115.5 -280zM606 1029q219 0 373 -154.5t154 -373.5q0 -218 -154 -372.5t-373 -154.5q-218 0 -372 155q-149 149 -154 335h-7q10 354 159.5 563t367.5 453q13 15 31 36h170
q-47 -59 -68 -83q-241 -269 -382 -470q58 66 255 66z" />
    <glyph glyph-name="seven" unicode="7" horiz-adv-x="1220" 
d="M815.5 973q-243.5 -273 -383 -471t-149.5 -502h-130q10 354 159.5 563.5t365 450.5t244.5 375h-768v127h912q-7 -270 -250.5 -543z" />
    <glyph glyph-name="eight" unicode="8" horiz-adv-x="1211" 
d="M604 113h4q18 -2 35 -2q137 0 234 96.5t97 234.5q0 136 -95 240q-93 101 -273 137q-181 -36 -274 -137q-95 -104 -95 -240q0 -138 97 -234.5t234 -96.5q17 0 36 2zM606 -19q-18 -1 -38 -1q-191 0 -326 135t-135 327q0 189 132 331q91 98 173 125q-11 4 -85.5 84
t-74.5 219q0 137 98 236t239 99h33q141 0 239 -99t98 -236q0 -139 -74.5 -219t-85.5 -84q82 -27 173 -125q132 -142 132 -331q0 -192 -134.5 -327t-326.5 -135q-19 0 -37 1zM603 1405q-7 1 -14 1q-85 0 -144.5 -59.5t-59.5 -145.5q0 -85 59 -148t109 -82q25 -9 53 -14
q27 5 52 14q50 19 109 82t59 148q0 86 -59.5 145.5t-144.5 59.5q-7 0 -14 -1h-5z" />
    <glyph glyph-name="nine" unicode="9" horiz-adv-x="1207" 
d="M996 989q0 164 -116 279.5t-280 115.5t-280 -115.5t-116 -279.5t116 -280t280 -116t280 116t116 280zM600 461q-219 0 -373 154.5t-154 373.5q0 218 154 372.5t373 154.5q218 0 373 -155q148 -148 154 -334h6q-10 -355 -159.5 -564t-367.5 -453q-12 -14 -31 -36h-170
q48 59 68 83q241 269 382 470q-58 -66 -255 -66z" />
    <glyph glyph-name="colon" unicode=":" horiz-adv-x="460" 
d="M304 165.5q31 -30.5 31 -73.5q0 -44 -31 -74.5t-74 -30.5t-74 30.5t-31 74.5q0 43 31 73.5t74 30.5t74 -30.5zM304 733q31 -30 31 -73q0 -45 -31 -75t-74 -30t-74 30t-31 75q0 43 31 73t74 30t74 -30z" />
    <glyph glyph-name="semicolon" unicode=";" horiz-adv-x="519" 
d="M394 197l-191 -398h-120l107 398h204zM307 733q31 -30 31 -73q0 -45 -31 -75t-74 -30t-74 30t-31 75q0 43 31 73t74 30t74 -30z" />
    <glyph glyph-name="less" unicode="&#x3c;" horiz-adv-x="1343" 
d="M1243 124l-1143 416l1143 416v-135l-772 -281l772 -281v-135z" />
    <glyph glyph-name="equal" unicode="=" horiz-adv-x="1030" 
d="M125 777h780v-127h-780v127zM125 483h780v-127h-780v127z" />
    <glyph glyph-name="greater" unicode="&#x3e;" horiz-adv-x="1343" 
d="M100 259l773 281l-773 281v135l1143 -416l-1143 -416v135z" />
    <glyph glyph-name="question" unicode="?" horiz-adv-x="946" 
d="M411 554q-35 -71 -35 -143q0 -55 27 -132l-118 -41q-34 98 -34 173q0 101 47 197q76 159 228 273q83 81 119 157q22 44 22 90q0 34 -12 68q-29 82 -106 119q-44 21 -89 21q-34 0 -69 -13q-81 -28 -118 -104q-21 -44 -21 -111l-125 6v29q0 65 32 128q61 125 191 170
q57 20 112 20q73 0 144 -34q124 -60 169 -189q20 -56 20 -111q0 -73 -35 -144q-58 -121 -192 -225q-104 -92 -157 -204zM406 165.5q31 -30.5 31 -73.5q0 -44 -31 -74.5t-74 -30.5t-74 30.5t-31 74.5q0 43 31 73.5t74 30.5t74 -30.5z" />
    <glyph glyph-name="at" unicode="@" horiz-adv-x="1560" 
d="M1011 469v116q-14 61 -62 109q-69 70 -166 70q-98 0 -166.5 -69.5t-68.5 -168.5q0 -97 68.5 -166t166.5 -69q97 0 166 69q48 48 62 109zM1009 255q-80 -84 -228 -84q-147 0 -252 105t-105 250q0 148 105 253t252 105q148 0 228 -84v72h119v-614q9 -22 28 -22
q29 0 95.5 94.5t66.5 194.5q0 222 -157.5 380t-379.5 158t-379 -158t-157 -380t157 -378.5t379 -156.5q152 0 234 51l84 -88q-139 -82 -318 -82q-270 0 -463 192.5t-193 461.5q0 271 192.5 463.5t463.5 192.5t462.5 -192.5t191.5 -463.5q0 -123 -90 -264t-205 -141
q-14 0 -27 2q-96 20 -104 113v20z" />
    <glyph glyph-name="A" unicode="A" 
d="M823 691l-193 531l-193 -531h386zM869 564h-479l-205 -564h-135l580 1592l579 -1592h-135z" />
    <glyph glyph-name="B" unicode="B" horiz-adv-x="1044" 
d="M397 1516v1h36q123 0 209.5 -87t86.5 -209q0 -125 -90 -200q66 -14 162 -119q153 -154 153 -373q0 -218 -153 -377q-144 -148 -322 -151v-1h-329v1516h247zM277 925v-798h202q122 8 227 118q117 120 117 284t-116 280t-280 116h-150zM277 1389v-332h176q61 6 104 46
q49 45 49 118t-49.5 120.5t-123.5 47.5h-156z" />
    <glyph glyph-name="C" unicode="C" horiz-adv-x="1540" 
d="M1345 286l95 -85q-239 -218 -540 -218q-321 0 -548 226.5t-227 548.5q0 321 227 548t548 227q301 0 540 -217l-95 -87q-198 176 -445 176q-267 0 -456.5 -189.5t-189.5 -457.5q0 -269 189.5 -458.5t456.5 -189.5q247 0 445 176z" />
    <glyph glyph-name="D" unicode="D" horiz-adv-x="1167" 
d="M277 1386v-1256q303 0 472 170q189 189 189 458q0 268 -189 458q-169 170 -472 170zM277 1514h-16q373 0 579 -207q227 -228 227 -549q0 -322 -227 -549q-206 -207 -579 -207h16v-2h-127v1516h127v-2z" />
    <glyph glyph-name="E" unicode="E" horiz-adv-x="1055" 
d="M930 1516v-127h-653v-568h653v-126h-653v-568h653v-127h-780v1516h780z" />
    <glyph glyph-name="F" unicode="F" horiz-adv-x="963" 
d="M838 1516v-127h-561v-568h561v-126h-561v-695h-127v1516h688z" />
    <glyph glyph-name="G" unicode="G" horiz-adv-x="1565" 
d="M1424 196q-223 -213 -524 -213q-321 0 -548 226.5t-227 548.5q0 321 227 548t548 227q301 0 540 -217l-95 -87q-198 176 -445 176q-267 0 -456.5 -189.5t-189.5 -457.5q0 -269 189.5 -458.5t456.5 -189.5q230 0 397 135v460h127v-509z" />
    <glyph glyph-name="H" unicode="H" horiz-adv-x="1126" 
d="M277 660v-660h-127v1516h127v-730h572v730h127v-1516h-127v660h-572z" />
    <glyph glyph-name="I" unicode="I" horiz-adv-x="467" 
d="M297 1516v-1516h-127v1516h127z" />
    <glyph glyph-name="J" unicode="J" horiz-adv-x="855" 
d="M700 274q0 -121 -80 -201q-85 -86 -205 -86q-121 0 -205.5 85t-84.5 205l126 33q0 -100 48 -148t116 -48q67 0 116 48q43 43 43 110q0 6 -1 15v1229h127v-1242z" />
    <glyph glyph-name="K" unicode="K" horiz-adv-x="1090" 
d="M277 727v-727h-127v1516h127v-583l437 583h161l-458 -615l584 -901h-155l-512 798z" />
    <glyph glyph-name="L" unicode="L" horiz-adv-x="937" 
d="M150 0v1516h127v-1389h570v-127h-697z" />
    <glyph glyph-name="M" unicode="M" horiz-adv-x="1670" 
d="M295 1516l541 -935l539 935h145l-19 -34v-1482h-127v1262l-538 -932l-540 932v-1262h-126v1482l-20 34h145z" />
    <glyph glyph-name="N" unicode="N" horiz-adv-x="1274" 
d="M150 1516h126l721 -1249v1249h127v-1516h-117l-730 1262v-1262h-127v1516z" />
    <glyph glyph-name="O" unicode="O" horiz-adv-x="1805" 
d="M1452 1309.5q228 -227.5 228 -549.5t-228 -549.5t-550 -227.5t-549.5 227.5t-227.5 549.5t227.5 549.5t549.5 227.5t550 -227.5zM902 1409q-268 0 -458 -190t-190 -459t190 -459.5t458 -190.5q269 0 459 190.5t190 459.5t-190 459t-459 190z" />
    <glyph glyph-name="P" unicode="P" horiz-adv-x="1062" 
d="M277 511v-511h-127v1516h410q177 -24 300 -147q147 -147 147 -355q0 -209 -147 -356t-355 -147h-228zM277 1388v-750h228q155 0 265 110t110 266q0 155 -110 264.5t-265 109.5h-228z" />
    <glyph glyph-name="Q" unicode="Q" horiz-adv-x="1805" 
d="M902 1409q-268 0 -458 -190t-190 -459t190 -459.5t458 -190.5q269 0 459 190.5t190 459.5t-190 459t-459 190zM802 -17q-224 2 -449 228q-228 227 -228 549t227.5 549.5t549.5 227.5t550 -227.5t228 -549.5t-228 -549q-164 -165 -307 -195l126 -68q75 -40 104 -48
q16 -5 31 -5q28 0 54 15q41 23 53 68q4 12 6 45h128q-3 -51 -11 -79q-28 -95 -114 -144q-54 -31 -114 -31q-33 0 -67 10q-58 16 -162 81q-91 49 -128 59q-24 6 -47 6q-40 0 -77 -21q-60 -34 -78 -100q-3 -9 -6 -38h-127q4 48 11 73q32 116 138 176z" />
    <glyph glyph-name="R" unicode="R" horiz-adv-x="1062" 
d="M277 1388v-750h228q155 0 265 110t110 266q0 155 -110 264.5t-265 109.5h-228zM505 511h-228v-511h-127v1516h410q177 -24 300 -147q147 -147 147 -355q0 -209 -147 -356q-102 -102 -204 -127l345 -531h-155z" />
    <glyph glyph-name="S" unicode="S" horiz-adv-x="1013" 
d="M525 816q-162 54 -258 150.5t-96 234.5q0 136 97.5 234t236.5 98q138 0 236 -97q55 -52 82 -138l-115 -45q-22 61 -57 96q-60 60 -146 60t-146.5 -60.5t-60.5 -147.5q0 -85 61 -146q59 -59 165 -108q180 -58 305 -183q134 -133 134 -322q0 -191 -134.5 -325t-323.5 -134
q-190 0 -324 135q-107 107 -131 267l121 44q16 -139 99 -223q98 -98 235 -98q138 0 235.5 97.5t97.5 236.5q0 137 -97 234q-88 88 -216 140z" />
    <glyph glyph-name="T" unicode="T" horiz-adv-x="972" 
d="M549 1389v-1389h-126v1389h-373v127h872v-127h-373z" />
    <glyph glyph-name="U" unicode="U" horiz-adv-x="1305" 
d="M1028 1516h127v-1081q-24 -178 -147 -301q-147 -147 -355 -147q-209 0 -356 147.5t-147 354.5v1027h128v-1027q0 -154 110 -264t265 -110q156 0 265.5 110t109.5 264v1027z" />
    <glyph glyph-name="V" unicode="V" 
d="M184 1516l445 -1222l444 1222h136l-580 -1592l-579 1592h134z" />
    <glyph glyph-name="W" unicode="W" horiz-adv-x="1602" 
d="M738 248v1268h127v-1268q17 -32 45 -60q77 -74 182 -74t181.5 75t76.5 181v1146h127v-1154q-3 -152 -112 -262q-113 -113 -273 -113q-159 0 -272 112l-19 17l-19 -17q-113 -112 -272 -112q-160 0 -272 113q-110 110 -113 262v1154h127v-1146q0 -106 76.5 -181t181.5 -75
q106 0 182 74q29 28 46 60z" />
    <glyph glyph-name="X" unicode="X" horiz-adv-x="1205" 
d="M50 0l479 831l-395 685h145l322 -559l324 559h146l-397 -685l481 -831h-146l-408 705l-406 -705h-145z" />
    <glyph glyph-name="Y" unicode="Y" horiz-adv-x="1272" 
d="M572 611l-522 905h146l440 -763l440 763h146l-523 -905v-611h-127v611z" />
    <glyph glyph-name="Z" unicode="Z" horiz-adv-x="1321" 
d="M952 1389h-786v127h1005l-803 -1389h787v-127h-1005z" />
    <glyph glyph-name="bracketleft" unicode="[" horiz-adv-x="579" 
d="M252 -218h202v-127h-329v1861h329v-127h-202v-1607z" />
    <glyph glyph-name="backslash" unicode="\" horiz-adv-x="729" 
d="M779 0h-142l-687 1516h143z" />
    <glyph glyph-name="bracketright" unicode="]" horiz-adv-x="579" 
d="M327 1389h-202v127h329v-1861h-329v127h202v1607z" />
    <glyph glyph-name="asciicircum" unicode="^" horiz-adv-x="939" 
d="M531 1516l309 -535h-147l-223 385l-223 -385h-147l310 535h121z" />
    <glyph glyph-name="underscore" unicode="_" horiz-adv-x="1014" 
d="M25 16h964v-126h-964v126z" />
    <glyph glyph-name="grave" unicode="`" horiz-adv-x="716" 
d="M378 1228l188 -216h-133l-283 216h228z" />
    <glyph glyph-name="a" unicode="a" horiz-adv-x="1317" 
d="M1167 0h-127v139q-169 -165 -388 -165q-218 0 -372.5 154.5t-154.5 372.5q0 219 154.5 373.5t372.5 154.5q219 0 388 -165v83h127v-947zM1040 422v159q-21 113 -108 200q-116 116 -280 116t-280 -116t-116 -280t116 -279t280 -115t280 115q87 88 108 200z" />
    <glyph glyph-name="b" unicode="b" horiz-adv-x="1316" 
d="M150 1516h127v-650q169 163 387 163q219 0 373 -154.5t154 -373.5q0 -218 -154 -372.5t-373 -154.5q-218 0 -387 164v-138h-127v1516zM277 586v-169q22 -109 107 -195q116 -115 280 -115t280 115t116 279t-116 280t-280 116t-280 -116q-85 -85 -107 -195z" />
    <glyph glyph-name="c" unicode="c" horiz-adv-x="1154" 
d="M935 265l129 -46q-42 -59 -73 -90q-155 -155 -374 -155q-218 0 -372.5 154.5t-154.5 373.5q0 218 154.5 372.5t372.5 154.5q219 0 374 -154q31 -32 73 -89l-129 -48q-23 28 -38 44q-116 115 -280 115q-163 0 -279 -115.5t-116 -279.5t116 -279.5t279 -115.5
q164 0 280 115q15 15 38 43z" />
    <glyph glyph-name="d" unicode="d" horiz-adv-x="1317" 
d="M1167 0h-127v139q-169 -165 -388 -165q-218 0 -372.5 154.5t-154.5 372.5q0 219 154.5 373.5t372.5 154.5q219 0 388 -165v652h127v-1516zM1040 422v159q-21 113 -108 200q-116 116 -280 116t-280 -116t-116 -280t116 -279t280 -115t280 115q87 88 108 200z" />
    <glyph glyph-name="e" unicode="e" horiz-adv-x="1154" 
d="M371 192q94 -85 246 -85q164 0 280 115q15 15 38 43l129 -46q-42 -59 -73 -90q-155 -155 -374 -155q-218 0 -372.5 154.5t-154.5 373.5q0 218 154.5 372.5t372.5 154.5q187 0 328 -112q23 -19 46 -42q8 -9 30 -33l-77 -77zM834 834q-82 63 -217 63q-163 0 -279 -115.5
t-116 -279.5q0 -135 63 -217z" />
    <glyph glyph-name="f" unicode="f" horiz-adv-x="534" 
d="M309 821v-821h-127v821h-92v126h92v224q6 111 85 191q82 76 189 76q55 0 137 -28l-41 -117q-56 24 -88 24q-56 0 -108 -46q-45 -44 -47 -107v-217h184v-126h-184z" />
    <glyph glyph-name="g" unicode="g" horiz-adv-x="1321" 
d="M1039 586q-22 110 -107 195q-116 116 -280 116t-280 -116t-116 -280t116 -279.5t280 -115.5t280 116q84 84 107 193v171zM1033 131l-7 -2q-155 -155 -374 -155q-218 0 -372.5 154.5t-154.5 372.5q0 219 154.5 373t372.5 154q219 0 388 -164v83h127v-724q0 -212 -151 -363
q-154 -154 -372 -154q-219 0 -374 154q-31 32 -73 90l129 46q23 -27 38 -42q116 -116 280 -116q163 0 279 116q105 105 110 177z" />
    <glyph glyph-name="h" unicode="h" horiz-adv-x="1042" 
d="M150 1516h127v-586q74 72 230 72q169 0 275.5 -107t109.5 -268v-627h-127v619q0 106 -76.5 181t-181.5 75t-182 -74q-33 -34 -48 -65v-736h-127v1516z" />
    <glyph glyph-name="i" unicode="i" horiz-adv-x="460" 
d="M293 947v-947h-127v947h127zM304 1237.5q31 -30.5 31 -73.5q0 -44 -31 -74.5t-74 -30.5t-74 30.5t-31 74.5q0 43 31 73.5t74 30.5t74 -30.5z" />
    <glyph glyph-name="j" unicode="j" horiz-adv-x="479" 
d="M49 -85q111 13 111 105v927h127v-925q0 -214 -238 -234v127zM298 1237.5q31 -30.5 31 -73.5q0 -44 -31 -74.5t-74 -30.5t-74 30.5t-31 74.5q0 43 31 73.5t74 30.5t74 -30.5z" />
    <glyph glyph-name="k" unicode="k" horiz-adv-x="833" 
d="M659 947l-242 -300l366 -647h-154l-297 544l-55 -69v-475h-127v1332h127v-654l218 269h164z" />
    <glyph glyph-name="l" unicode="l" horiz-adv-x="427" 
d="M277 1516v-1516h-127v1516h127z" />
    <glyph glyph-name="m" unicode="m" horiz-adv-x="1333" 
d="M150 947h127v9q46 45 163 45q120 0 205 -85l21 -21l22 21q85 85 205 85q121 0 205 -85q81 -81 85 -196v-720h-127v741q-2 41 -47 85q-48 48 -116 48q-67 0 -115.5 -48t-48.5 -120v-706h-126v741h-1q-2 41 -46 85q-49 48 -116 48q-68 0 -115 -48q-43 -41 -48 -100v-726
h-127v947z" />
    <glyph glyph-name="n" unicode="n" horiz-adv-x="1053" 
d="M277 719v-719h-127v947h127v-27q82 82 241 82q169 0 275.5 -107t109.5 -268v-627h-126v619q0 106 -77 181t-182 75t-182 -74q-42 -42 -59 -82z" />
    <glyph glyph-name="o" unicode="o" horiz-adv-x="1234" 
d="M617 1029q219 0 373 -154.5t154 -373.5q0 -218 -154 -372.5t-373 -154.5q-218 0 -372.5 154.5t-154.5 372.5q0 219 154.5 373.5t372.5 154.5zM337 781q-116 -116 -116 -280t116 -279t280 -115t280 115t116 279t-116 280t-280 116t-280 -116z" />
    <glyph glyph-name="p" unicode="p" horiz-adv-x="1291" 
d="M150 947h127v-81q169 162 387 162q219 0 373 -154t154 -373q0 -218 -154 -372.5t-373 -154.5q-218 0 -387 164v-483h-127v1292zM277 586v-169q22 -110 107 -195q116 -116 280 -116t280 115.5t116 279.5t-116 280t-280 116t-280 -116q-85 -85 -107 -195z" />
    <glyph glyph-name="q" unicode="q" horiz-adv-x="1292" 
d="M1142 -345h-127v484q-169 -165 -388 -165q-218 0 -372.5 154.5t-154.5 372.5q0 219 154.5 373t372.5 154q219 0 388 -164v83h127v-1292zM1015 422v159q-21 113 -108 200q-116 116 -280 116t-280 -116t-116 -280t116 -279.5t280 -115.5t280 116q87 87 108 200z" />
    <glyph glyph-name="r" unicode="r" horiz-adv-x="611" 
d="M150 947h127v-116q138 132 284 139v-135q-91 -4 -168 -82q-112 -110 -116 -265v-488h-127v947z" />
    <glyph glyph-name="s" unicode="s" horiz-adv-x="799" 
d="M406 468q-107 58 -150 101q-70 69 -70 168t70 169.5t168 70.5q99 0 165 -66q63 -64 63 -147v-19l-112 -45q-12 91 -40.5 120t-75.5 29q-46 0 -79 -32.5t-33 -79.5q0 -46 33 -79q21 -22 93 -67q120 -65 172 -117q84 -86 84 -205q0 -121 -84.5 -206t-204.5 -85
q-121 0 -205.5 85t-84.5 205l126 33q0 -101 48 -148.5t116 -47.5q67 0 115.5 47.5t48.5 116.5q0 68 -48 116q-28 27 -115 83z" />
    <glyph glyph-name="t" unicode="t" horiz-adv-x="675" 
d="M274 947v385h127v-385h184v-126h-184v-821h-127v821h-184v126h184z" />
    <glyph glyph-name="u" unicode="u" horiz-adv-x="1079" 
d="M545 -13q-179 0 -285.5 106.5t-109.5 268.5v587h127v-579q0 -106 77 -180q76 -76 190 -76q105 0 181.5 75t76.5 181v579h127v-587q-3 -162 -109 -268q-107 -107 -275 -107z" />
    <glyph glyph-name="v" unicode="v" horiz-adv-x="1057" 
d="M528 225l334 722h145l-479 -1001l-478 1001h145z" />
    <glyph glyph-name="w" unicode="w" horiz-adv-x="1333" 
d="M603 262v685h126v-666q0 -71 48.5 -119t115.5 -48q68 0 116 48q45 44 47 85v700h127v-679q-4 -115 -85 -195q-84 -86 -205 -86q-120 0 -226 106q-107 -106 -227 -106q-121 0 -205 86q-81 80 -85 195v679h127v-700q2 -41 48 -85q47 -48 115 -48q67 0 116 48q41 41 47 100z
" />
    <glyph glyph-name="x" unicode="x" horiz-adv-x="889" 
d="M764 947l-248 -429l299 -518h-147l-223 386l-223 -386h-147l300 518l-248 429h146l172 -297l172 297h147z" />
    <glyph glyph-name="y" unicode="y" horiz-adv-x="1007" 
d="M313 -345h-129l254 534l-363 758h143l286 -617l286 617h141z" />
    <glyph glyph-name="z" unicode="z" horiz-adv-x="1004" 
d="M616 808h-450v127h669l-467 -808h486v-127h-704z" />
    <glyph glyph-name="braceleft" unicode="{" horiz-adv-x="861" 
d="M165 642q36 0 102 38q98 56 129 166q17 63 17 134q0 39 -6 79q-13 68 -13 128q0 64 16 121q30 112 132 170q65 38 136 38q20 0 57 -6v-114q-40 7 -55 7q-42 0 -82 -22q-61 -35 -79 -102q-13 -48 -13 -110q0 -26 3 -55q15 -71 15 -141q0 -81 -20 -157q-43 -154 -172 -231
q129 -76 172 -230q20 -76 20 -157q0 -70 -15 -141q-3 -29 -3 -55q0 -62 13 -110q18 -67 79 -101q42 -23 85 -23q13 0 52 5v-112q-37 -6 -57 -6q-71 0 -136 38q-102 58 -132 171q-16 57 -16 121q0 60 13 127q6 40 6 79q0 71 -17 134q-31 110 -129 166q-66 38 -102 38v113z
" />
    <glyph glyph-name="bar" unicode="|" horiz-adv-x="427" 
d="M277 1516v-1861h-127v1861h127z" />
    <glyph glyph-name="braceright" unicode="}" horiz-adv-x="861" 
d="M735 529q-36 0 -102 -38q-98 -56 -129 -166q-16 -63 -16 -134q0 -39 5 -79q13 -67 13 -127q0 -64 -15 -121q-30 -113 -133 -171q-65 -38 -136 -38q-19 0 -57 6v112q39 -5 52 -5q43 0 85 23q61 34 79 101q13 48 13 110q0 26 -2 55q-15 71 -15 141q0 81 20 157
q43 154 172 230q-129 77 -172 231q-20 76 -20 157q0 70 15 141q2 29 2 55q0 62 -13 110q-18 67 -79 102q-40 22 -82 22q-15 0 -55 -7v114q38 6 57 6q71 0 136 -38q103 -58 133 -170q15 -57 15 -121q0 -60 -13 -128q-5 -40 -5 -79q0 -71 16 -134q31 -110 129 -166
q66 -38 102 -38v-113z" />
    <glyph glyph-name="asciitilde" unicode="~" horiz-adv-x="1241" 
d="M631 833q168 -97 240 -97q11 0 19 2q60 18 85 79q12 31 12 88l129 -20q-5 -68 -24 -116q-46 -111 -157 -149q-27 -8 -59 -8q-102 0 -266 94q-170 97 -241 97q-11 0 -19 -2q-60 -18 -84 -79q-13 -32 -14 -88l-127 20q3 67 23 116q46 111 158 149q26 8 57 8q103 0 268 -94z
" />
    <glyph glyph-name="dieresis" unicode="&#xa8;" horiz-adv-x="1024" 
 />
    <glyph glyph-name="copyright" unicode="&#xa9;" horiz-adv-x="1772" 
 />
    <glyph glyph-name="registered" unicode="&#xae;" horiz-adv-x="1770" 
 />
    <glyph glyph-name="acute" unicode="&#xb4;" horiz-adv-x="1024" 
 />
    <glyph glyph-name="paragraph" unicode="&#xb6;" horiz-adv-x="1024" 
d="M929 1435v-70h-127v-1365h-82v1365h-166v-1365h-84v738q-174 8 -275.5 102.5t-101.5 245.5q0 157 107.5 253t285.5 96h443z" />
    <glyph glyph-name="onequarter" unicode="&#xbc;" horiz-adv-x="1298" 
 />
    <glyph glyph-name="onehalf" unicode="&#xbd;" horiz-adv-x="1320" 
 />
    <glyph glyph-name="threequarters" unicode="&#xbe;" horiz-adv-x="1288" 
 />
    <glyph glyph-name="Agrave" unicode="&#xc0;" 
d="M823 691l-193 531l-193 -531h386zM869 564h-479l-205 -564h-135l580 1592l579 -1592h-135zM526 1879l188 -216h-133l-283 216h228z" />
    <glyph glyph-name="Aacute" unicode="&#xc1;" 
d="M823 691l-193 531l-193 -531h386zM869 564h-479l-205 -564h-135l580 1592l579 -1592h-135zM961 1879l-283 -216h-133l188 216h228z" />
    <glyph glyph-name="Acircumflex" unicode="&#xc2;" 
d="M823 691l-193 531l-193 -531h386zM869 564h-479l-205 -564h-135l580 1592l579 -1592h-135zM683 1839l264 -260h-157l-164 126l-154 -126h-157l254 260h114z" />
    <glyph glyph-name="Atilde" unicode="&#xc3;" 
d="M823 691l-193 531l-193 -531h386zM869 564h-479l-205 -564h-135l580 1592l579 -1592h-135zM638 1770q63 -50 100 -50h4q29 2 48 77h107q-26 -158 -111 -183q-23 -6 -45 -6q-60 0 -119 47q-63 49 -101 49h-4q-29 -1 -48 -77h-107q27 158 112 183q22 7 44 7q60 0 120 -47z
" />
    <glyph glyph-name="Egrave" unicode="&#xc8;" horiz-adv-x="1055" 
d="M930 1516v-127h-653v-568h653v-126h-653v-568h653v-127h-780v1516h780zM501 1851l189 -216h-134l-283 216h228z" />
    <glyph glyph-name="Eacute" unicode="&#xc9;" horiz-adv-x="1055" 
d="M930 1516v-127h-653v-568h653v-126h-653v-568h653v-127h-780v1516h780zM807 1851l-283 -216h-134l189 216h228z" />
    <glyph glyph-name="Ecircumflex" unicode="&#xca;" horiz-adv-x="1055" 
d="M930 1516v-127h-653v-568h653v-126h-653v-568h653v-127h-780v1516h780zM594 1835l264 -260h-157l-163 126l-155 -126h-157l254 260h114z" />
    <glyph glyph-name="Igrave" unicode="&#xcc;" horiz-adv-x="512" 
d="M320 1516v-1516h-126v1516h126zM154 1851l188 -216h-133l-283 216h228z" />
    <glyph glyph-name="Iacute" unicode="&#xcd;" horiz-adv-x="512" 
d="M319 1516v-1516h-127v1516h127zM586 1851l-283 -216h-133l188 216h228z" />
    <glyph glyph-name="Ograve" unicode="&#xd2;" horiz-adv-x="1805" 
d="M1452 1309.5q228 -227.5 228 -549.5t-228 -549.5t-550 -227.5t-549.5 227.5t-227.5 549.5t227.5 549.5t549.5 227.5t550 -227.5zM902 1409q-268 0 -458 -190t-190 -459t190 -459.5t458 -190.5q269 0 459 190.5t190 459.5t-190 459t-459 190zM864 1851l188 -216h-133
l-283 216h228z" />
    <glyph glyph-name="Oacute" unicode="&#xd3;" horiz-adv-x="1805" 
d="M1452 1309.5q228 -227.5 228 -549.5t-228 -549.5t-550 -227.5t-549.5 227.5t-227.5 549.5t227.5 549.5t549.5 227.5t550 -227.5zM902 1409q-268 0 -458 -190t-190 -459t190 -459.5t458 -190.5q269 0 459 190.5t190 459.5t-190 459t-459 190zM1169 1851l-283 -216h-133
l188 216h228z" />
    <glyph glyph-name="Ocircumflex" unicode="&#xd4;" horiz-adv-x="1805" 
d="M1452 1309.5q228 -227.5 228 -549.5t-228 -549.5t-550 -227.5t-549.5 227.5t-227.5 549.5t227.5 549.5t549.5 227.5t550 -227.5zM902 1409q-268 0 -458 -190t-190 -459t190 -459.5t458 -190.5q269 0 459 190.5t190 459.5t-190 459t-459 190zM956 1885l264 -260h-157
l-163 126l-155 -126h-156l253 260h114z" />
    <glyph glyph-name="Otilde" unicode="&#xd5;" horiz-adv-x="1805" 
d="M1452 1309.5q228 -227.5 228 -549.5t-228 -549.5t-550 -227.5t-549.5 227.5t-227.5 549.5t227.5 549.5t549.5 227.5t550 -227.5zM902 1409q-268 0 -458 -190t-190 -459t190 -459.5t458 -190.5q269 0 459 190.5t190 459.5t-190 459t-459 190zM911 1789q63 -51 101 -51h4
q29 2 48 78h106q-26 -158 -111 -183q-22 -7 -44 -7q-61 0 -120 47q-63 50 -100 50h-4q-29 -2 -48 -77h-108q27 158 112 183q23 6 45 6q60 0 119 -46z" />
    <glyph glyph-name="Ugrave" unicode="&#xd9;" horiz-adv-x="1305" 
d="M1028 1516h127v-1081q-24 -178 -147 -301q-147 -147 -355 -147q-209 0 -356 147.5t-147 354.5v1027h128v-1027q0 -154 110 -264t265 -110q156 0 265.5 110t109.5 264v1027zM613 1851l189 -216h-133l-283 216h227z" />
    <glyph glyph-name="Uacute" unicode="&#xda;" horiz-adv-x="1305" 
d="M1028 1516h127v-1081q-24 -178 -147 -301q-147 -147 -355 -147q-209 0 -356 147.5t-147 354.5v1027h128v-1027q0 -154 110 -264t265 -110q156 0 265.5 110t109.5 264v1027zM920 1851l-283 -216h-133l188 216h228z" />
    <glyph glyph-name="Yacute" unicode="&#xdd;" horiz-adv-x="1272" 
d="M572 611l-522 905h146l440 -763l440 763h146l-523 -905v-611h-127v611zM920 1851l-283 -216h-133l188 216h228z" />
    <glyph glyph-name="agrave" unicode="&#xe0;" horiz-adv-x="1317" 
d="M1167 0h-127v139q-169 -165 -388 -165q-218 0 -372.5 154.5t-154.5 372.5q0 219 154.5 373.5t372.5 154.5q219 0 388 -165v83h127v-947zM1040 422v159q-21 113 -108 200q-116 116 -280 116t-280 -116t-116 -280t116 -279t280 -115t280 115q87 88 108 200zM597 1328
l188 -216h-133l-283 216h228z" />
    <glyph glyph-name="aacute" unicode="&#xe1;" horiz-adv-x="1317" 
d="M1167 0h-127v139q-169 -165 -388 -165q-218 0 -372.5 154.5t-154.5 372.5q0 219 154.5 373.5t372.5 154.5q219 0 388 -165v83h127v-947zM1040 422v159q-21 113 -108 200q-116 116 -280 116t-280 -116t-116 -280t116 -279t280 -115t280 115q87 88 108 200zM923 1328
l-283 -216h-133l188 216h228z" />
    <glyph glyph-name="acircumflex" unicode="&#xe2;" horiz-adv-x="1317" 
d="M1167 0h-127v139q-169 -165 -388 -165q-218 0 -372.5 154.5t-154.5 372.5q0 219 154.5 373.5t372.5 154.5q219 0 388 -165v83h127v-947zM1040 422v159q-21 113 -108 200q-116 116 -280 116t-280 -116t-116 -280t116 -279t280 -115t280 115q87 88 108 200zM739 1362
l263 -259h-157l-163 125l-154 -125h-157l254 259h114z" />
    <glyph glyph-name="atilde" unicode="&#xe3;" horiz-adv-x="1317" 
d="M1167 0h-127v139q-169 -165 -388 -165q-218 0 -372.5 154.5t-154.5 372.5q0 219 154.5 373.5t372.5 154.5q219 0 388 -165v83h127v-947zM1040 422v159q-21 113 -108 200q-116 116 -280 116t-280 -116t-116 -280t116 -279t280 -115t280 115q87 88 108 200zM655 1294
q63 -51 101 -51h4q29 2 47 78h107q-26 -158 -111 -183q-22 -7 -45 -7q-60 0 -119 47q-63 50 -101 50h-3q-30 -2 -48 -77h-108q27 158 112 183q22 6 45 6q60 0 119 -46z" />
    <glyph glyph-name="egrave" unicode="&#xe8;" horiz-adv-x="1243" 
d="M371 192q94 -85 246 -85q164 0 280 115q15 15 38 43l129 -46q-42 -59 -73 -90q-155 -155 -374 -155q-218 0 -372.5 154.5t-154.5 373.5q0 218 154.5 372.5t372.5 154.5q187 0 328 -112q23 -19 46 -42q8 -9 30 -33l-77 -77zM834 834q-82 63 -217 63q-163 0 -279 -115.5
t-116 -279.5q0 -135 63 -217zM573 1328l188 -216h-133l-283 216h228z" />
    <glyph glyph-name="eacute" unicode="&#xe9;" horiz-adv-x="1243" 
d="M371 192q94 -85 246 -85q164 0 280 115q15 15 38 43l129 -46q-42 -59 -73 -90q-155 -155 -374 -155q-218 0 -372.5 154.5t-154.5 373.5q0 218 154.5 372.5t372.5 154.5q187 0 328 -112q23 -19 46 -42q8 -9 30 -33l-77 -77zM834 834q-82 63 -217 63q-163 0 -279 -115.5
t-116 -279.5q0 -135 63 -217zM878 1328l-283 -216h-133l188 216h228z" />
    <glyph glyph-name="ecircumflex" unicode="&#xea;" horiz-adv-x="1243" 
d="M371 192q94 -85 246 -85q164 0 280 115q15 15 38 43l129 -46q-42 -59 -73 -90q-155 -155 -374 -155q-218 0 -372.5 154.5t-154.5 373.5q0 218 154.5 372.5t372.5 154.5q187 0 328 -112q23 -19 46 -42q8 -9 30 -33l-77 -77zM834 834q-82 63 -217 63q-163 0 -279 -115.5
t-116 -279.5q0 -135 63 -217zM666 1362l263 -259h-157l-163 125l-154 -125h-157l254 259h114z" />
    <glyph glyph-name="igrave" unicode="&#xec;" horiz-adv-x="512" 
d="M320 947v-947h-126v947h126zM154 1328l188 -216h-133l-283 216h228z" />
    <glyph glyph-name="iacute" unicode="&#xed;" horiz-adv-x="512" 
d="M319 947v-947h-127v947h127zM586 1328l-283 -216h-133l188 216h228z" />
    <glyph glyph-name="ograve" unicode="&#xf2;" horiz-adv-x="1234" 
d="M617 1029q219 0 373 -154.5t154 -373.5q0 -218 -154 -372.5t-373 -154.5q-218 0 -372.5 154.5t-154.5 372.5q0 219 154.5 373.5t372.5 154.5zM337 781q-116 -116 -116 -280t116 -279t280 -115t280 115t116 279t-116 280t-280 116t-280 -116zM578 1328l189 -216h-133
l-283 216h227z" />
    <glyph glyph-name="oacute" unicode="&#xf3;" horiz-adv-x="1234" 
d="M617 1029q219 0 373 -154.5t154 -373.5q0 -218 -154 -372.5t-373 -154.5q-218 0 -372.5 154.5t-154.5 372.5q0 219 154.5 373.5t372.5 154.5zM337 781q-116 -116 -116 -280t116 -279t280 -115t280 115t116 279t-116 280t-280 116t-280 -116zM884 1328l-283 -216h-133
l188 216h228z" />
    <glyph glyph-name="ocircumflex" unicode="&#xf4;" horiz-adv-x="1234" 
d="M617 1029q219 0 373 -154.5t154 -373.5q0 -218 -154 -372.5t-373 -154.5q-218 0 -372.5 154.5t-154.5 372.5q0 219 154.5 373.5t372.5 154.5zM337 781q-116 -116 -116 -280t116 -279t280 -115t280 115t116 279t-116 280t-280 116t-280 -116zM671 1362l264 -259h-157
l-163 125l-155 -125h-157l254 259h114z" />
    <glyph glyph-name="otilde" unicode="&#xf5;" horiz-adv-x="1234" 
d="M617 1029q219 0 373 -154.5t154 -373.5q0 -218 -154 -372.5t-373 -154.5q-218 0 -372.5 154.5t-154.5 372.5q0 219 154.5 373.5t372.5 154.5zM337 781q-116 -116 -116 -280t116 -279t280 -115t280 115t116 279t-116 280t-280 116t-280 -116zM626 1294q63 -51 101 -51h4
q29 2 47 78h107q-26 -158 -111 -183q-22 -7 -45 -7q-60 0 -119 47q-63 50 -101 50h-4q-29 -2 -47 -77h-108q27 158 112 183q22 6 45 6q60 0 119 -46z" />
    <glyph glyph-name="divide" unicode="&#xf7;" horiz-adv-x="1706" 
 />
    <glyph glyph-name="glyph216" unicode="&#xf9;" horiz-adv-x="582" 
 />
    <glyph glyph-name="glyph217" unicode="&#xfa;" horiz-adv-x="580" 
 />
    <glyph glyph-name="glyph234" unicode="&#xfd;" horiz-adv-x="629" 
 />
    <glyph glyph-name="Abreve" unicode="&#x102;" 
d="M823 691l-193 531l-193 -531h386zM869 564h-479l-205 -564h-135l580 1592l579 -1592h-135zM499 1893q9 -60 39 -90q38 -38 91 -38t91 38q30 30 38 90h111q-11 -108 -71 -169q-69 -70 -169 -70t-169 70q-66 67 -71 169h110z" />
    <glyph glyph-name="abreve" unicode="&#x103;" horiz-adv-x="1317" 
d="M1167 0h-127v139q-169 -165 -388 -165q-218 0 -372.5 154.5t-154.5 372.5q0 219 154.5 373.5t372.5 154.5q219 0 388 -165v83h127v-947zM1040 422v159q-21 113 -108 200q-116 116 -280 116t-280 -116t-116 -280t116 -279t280 -115t280 115q87 88 108 200zM516 1375
q9 -60 39 -90q38 -38 91 -38t91 38q30 30 38 90h111q-11 -108 -71 -169q-69 -70 -169 -70t-169 70q-66 67 -71 169h110z" />
    <glyph glyph-name="Ccaron" unicode="&#x10c;" horiz-adv-x="1274" 
 />
    <glyph glyph-name="ccaron" unicode="&#x10d;" horiz-adv-x="922" 
 />
    <glyph glyph-name="Dslash" unicode="&#x110;" horiz-adv-x="1239" 
d="M197 821v695h127v-2h-16q373 0 579 -207q227 -228 227 -549q0 -322 -227 -549q-206 -207 -579 -207h16v-2h-127v695h-147v126h147zM324 821h340v-126h-340v-565q303 0 472 170q190 189 190 458q0 268 -190 458q-169 170 -472 170v-565z" />
    <glyph glyph-name="dcroat" unicode="&#x111;" horiz-adv-x="1309" 
d="M1040 422v159q-21 113 -108 200q-116 116 -280 116t-280 -116t-116 -280t116 -279t280 -115t280 115q87 88 108 200zM1167 1180v-1180h-127v139l-14 -10q-155 -155 -374 -155q-218 0 -372.5 154.5t-154.5 372.5q0 219 154.5 373.5t372.5 154.5q219 0 374 -154l14 -11v316
h-267v127h267v209h127v-209h91v-127h-91z" />
    <glyph glyph-name="Itilde" unicode="&#x128;" horiz-adv-x="467" 
d="M297 1516v-1516h-127v1516h127zM267 1770q63 -50 100 -50h4q29 2 48 77h107q-26 -158 -111 -183q-23 -6 -45 -6q-60 0 -119 47q-63 49 -101 49h-4q-29 -1 -48 -77h-107q27 158 112 183q22 7 44 7q60 0 120 -47z" />
    <glyph glyph-name="itilde" unicode="&#x129;" horiz-adv-x="460" 
d="M293 947v-947h-127v947h127zM254 1213q63 -51 101 -51h4q29 2 47 78h107q-26 -158 -111 -183q-22 -7 -45 -7q-60 0 -119 47q-63 50 -101 50h-3q-30 -2 -48 -77h-108q27 158 112 183q22 6 45 6q60 0 119 -46z" />
    <glyph glyph-name="Utilde" unicode="&#x168;" horiz-adv-x="1305" 
d="M1028 1516h127v-1081q-24 -178 -147 -301q-147 -147 -355 -147q-209 0 -356 147.5t-147 354.5v1027h128v-1027q0 -154 110 -264t265 -110q156 0 265.5 110t109.5 264v1027zM670 1789q63 -51 101 -51h4q29 2 48 78h106q-26 -158 -111 -183q-22 -7 -44 -7q-61 0 -120 47
q-63 50 -100 50h-4q-29 -2 -48 -77h-108q27 158 112 183q23 6 45 6q60 0 119 -46z" />
    <glyph glyph-name="utilde" unicode="&#x169;" horiz-adv-x="1079" 
d="M545 -13q-179 0 -285.5 106.5t-109.5 268.5v587h127v-579q0 -106 77 -180q76 -76 190 -76q105 0 181.5 75t76.5 181v579h127v-587q-3 -162 -109 -268q-107 -107 -275 -107zM556 1294q63 -51 101 -51h4q29 2 47 78h107q-26 -158 -111 -183q-22 -7 -45 -7q-60 0 -119 47
q-63 50 -101 50h-4q-29 -2 -47 -77h-108q27 158 112 183q22 6 45 6q60 0 119 -46z" />
    <glyph glyph-name="Ohorn" unicode="&#x1a0;" horiz-adv-x="1805" 
d="M902 1409q-268 0 -458 -190t-190 -459t190 -459.5t458 -190.5q269 0 459 190.5t190 459.5t-190 459t-459 190zM1498 1260q182 -212 182 -500q0 -322 -228 -549.5t-550 -227.5t-549.5 227.5t-227.5 549.5t227.5 549.5t549.5 227.5t550 -227q6 -7 13 -14l59 221h132
l-124 -257h-34z" />
    <glyph glyph-name="ohorn" unicode="&#x1a1;" horiz-adv-x="1234" 
d="M337 781q-116 -116 -116 -280t116 -279t280 -115t280 115t116 279t-116 280t-280 116t-280 -116zM1099 719q45 -100 45 -218q0 -218 -154 -372.5t-373 -154.5q-218 0 -372.5 154.5t-154.5 372.5q0 219 154.5 373.5t372.5 154.5q219 0 373 -154q54 -55 89 -117l59 218h132
l-124 -257h-47z" />
    <glyph glyph-name="Uhorn" unicode="&#x1af;" horiz-adv-x="1305" 
d="M1155 1260v-825q-24 -178 -147 -301q-147 -147 -355 -147q-209 0 -356 147.5t-147 354.5v1027h128v-1027q0 -154 110 -264t265 -110q156 0 265.5 110t109.5 264v1027h127v-159l43 160h132l-124 -257h-51z" />
    <glyph glyph-name="uhorn" unicode="&#x1b0;" horiz-adv-x="1079" 
d="M929 692v-330q-3 -162 -109 -268q-107 -107 -275 -107q-179 0 -285.5 106.5t-109.5 268.5v587h127v-579q0 -106 77 -180q76 -76 190 -76q105 0 181.5 75t76.5 181v579h127v-142l38 142h132l-124 -257h-46z" />
    <glyph glyph-name="uni1EA0" unicode="&#x1ea0;" 
d="M823 691l-193 531l-193 -531h386zM869 564h-479l-205 -564h-135l580 1592l579 -1592h-135zM704 -123.5q31 -30.5 31 -73.5q0 -44 -31 -74.5t-74 -30.5t-74 30.5t-31 74.5q0 43 31 73.5t74 30.5t74 -30.5z" />
    <glyph glyph-name="uni1EA1" unicode="&#x1ea1;" horiz-adv-x="1317" 
d="M1167 0h-127v139q-169 -165 -388 -165q-218 0 -372.5 154.5t-154.5 372.5q0 219 154.5 373.5t372.5 154.5q219 0 388 -165v83h127v-947zM1040 422v159q-21 113 -108 200q-116 116 -280 116t-280 -116t-116 -280t116 -279t280 -115t280 115q87 88 108 200zM710 -123.5
q31 -30.5 31 -73.5q0 -44 -31 -74.5t-74 -30.5t-74 30.5t-31 74.5q0 43 31 73.5t74 30.5t74 -30.5z" />
    <glyph glyph-name="uni1EA2" unicode="&#x1ea2;" 
d="M823 691l-193 531l-193 -531h386zM869 564h-479l-205 -564h-135l580 1592l579 -1592h-135zM565 1636q0 45 22 88q34 71 101 121q31 31 45 60q7 15 7 31q0 11 -4 23q-9 27 -33 38q-13 6 -25 6q-9 0 -19 -3q-25 -9 -36 -33q-7 -15 -7 -61l-103 5v31q0 31 15 61q30 61 94 83
q29 10 57 10q38 0 73 -17q61 -30 83 -92q9 -26 9 -52q0 -34 -16 -67q-27 -55 -86 -102q-40 -35 -61 -79q-8 -17 -11 -33z" />
    <glyph glyph-name="uni1EA3" unicode="&#x1ea3;" horiz-adv-x="1317" 
d="M1167 0h-127v139q-169 -165 -388 -165q-218 0 -372.5 154.5t-154.5 372.5q0 219 154.5 373.5t372.5 154.5q219 0 388 -165v83h127v-947zM1040 422v159q-21 113 -108 200q-116 116 -280 116t-280 -116t-116 -280t116 -279t280 -115t280 115q87 88 108 200zM600 1089
q5 30 20 60q34 71 101 121q31 31 45 60q7 15 7 31q0 11 -4 23q-9 27 -33 38q-13 6 -25 6q-9 0 -19 -3q-25 -9 -36 -33q-7 -15 -7 -61l-103 5v31q0 31 15 61q30 61 94 83q29 10 57 10q38 0 73 -17q61 -30 83 -92q9 -26 9 -52q0 -34 -16 -67q-27 -55 -86 -102q-40 -35 -61 -79
q-7 -14 -10 -27z" />
    <glyph glyph-name="uni1EA4" unicode="&#x1ea4;" 
d="M823 691l-193 531l-193 -531h386zM869 564h-479l-205 -564h-135l580 1592l579 -1592h-135zM1182 2009l-283 -216h-133l188 216h228zM683 1839l264 -260h-157l-164 126l-154 -126h-157l254 260h114z" />
    <glyph glyph-name="uni1EA5" unicode="&#x1ea5;" horiz-adv-x="1317" 
d="M1167 0h-127v139q-169 -165 -388 -165q-218 0 -372.5 154.5t-154.5 372.5q0 219 154.5 373.5t372.5 154.5q219 0 388 -165v83h127v-947zM1040 422v159q-21 113 -108 200q-116 116 -280 116t-280 -116t-116 -280t116 -279t280 -115t280 115q87 88 108 200zM1264 1519
l-283 -216h-133l188 216h228zM739 1362l263 -259h-157l-163 125l-154 -125h-157l254 259h114z" />
    <glyph glyph-name="uni1EA6" unicode="&#x1ea6;" 
d="M823 691l-193 531l-193 -531h386zM869 564h-479l-205 -564h-135l580 1592l579 -1592h-135zM747 2030l188 -216h-133l-283 216h228zM683 1839l264 -260h-157l-164 126l-154 -126h-157l254 260h114z" />
    <glyph glyph-name="uni1EA7" unicode="&#x1ea7;" horiz-adv-x="1317" 
d="M1167 0h-127v139q-169 -165 -388 -165q-218 0 -372.5 154.5t-154.5 372.5q0 219 154.5 373.5t372.5 154.5q219 0 388 -165v83h127v-947zM1040 422v159q-21 113 -108 200q-116 116 -280 116t-280 -116t-116 -280t116 -279t280 -115t280 115q87 88 108 200zM808 1549
l188 -216h-133l-283 216h228zM739 1362l263 -259h-157l-163 125l-154 -125h-157l254 259h114z" />
    <glyph glyph-name="uni1EA8" unicode="&#x1ea8;" 
d="M823 691l-193 531l-193 -531h386zM869 564h-479l-205 -564h-135l580 1592l579 -1592h-135zM776 1797q0 45 22 88q34 71 101 121q31 31 45 60q7 15 7 31q0 11 -4 23q-9 27 -33 38q-13 6 -25 6q-9 0 -19 -3q-25 -9 -36 -33q-7 -15 -7 -61l-103 5v31q0 31 15 61q30 61 94 83
q29 10 57 10q38 0 73 -17q61 -30 83 -92q9 -26 9 -52q0 -34 -16 -67q-27 -55 -86 -102q-40 -35 -61 -79q-8 -17 -11 -33zM683 1839l264 -260h-157l-164 126l-154 -126h-157l254 260h114z" />
    <glyph glyph-name="uni1EA9" unicode="&#x1ea9;" horiz-adv-x="1317" 
d="M1167 0h-127v139q-169 -165 -388 -165q-218 0 -372.5 154.5t-154.5 372.5q0 219 154.5 373.5t372.5 154.5q219 0 388 -165v83h127v-947zM1040 422v159q-21 113 -108 200q-116 116 -280 116t-280 -116t-116 -280t116 -279t280 -115t280 115q87 88 108 200zM851 1300
q5 30 20 60q34 71 101 121q31 31 45 60q7 15 7 31q0 11 -4 23q-9 27 -33 38q-13 6 -25 6q-9 0 -19 -3q-25 -9 -36 -33q-7 -15 -7 -61l-103 5v31q0 31 15 61q30 61 94 83q29 10 57 10q38 0 73 -17q61 -30 83 -92q9 -26 9 -52q0 -34 -16 -67q-27 -55 -86 -102q-40 -35 -61 -79
q-7 -14 -10 -27zM739 1362l263 -259h-157l-163 125l-154 -125h-157l254 259h114z" />
    <glyph glyph-name="uni1EAA" unicode="&#x1eaa;" 
d="M823 691l-193 531l-193 -531h386zM869 564h-479l-205 -564h-135l580 1592l579 -1592h-135zM698 2021q63 -50 100 -50h4q29 2 48 77h107q-26 -158 -111 -183q-23 -6 -45 -6q-60 0 -119 47q-63 49 -101 49h-4q-29 -1 -48 -77h-107q27 158 112 183q22 7 44 7q60 0 120 -47z
M683 1839l264 -260h-157l-164 126l-154 -126h-157l254 260h114z" />
    <glyph glyph-name="uni1EAB" unicode="&#x1eab;" horiz-adv-x="1317" 
d="M1167 0h-127v139q-169 -165 -388 -165q-218 0 -372.5 154.5t-154.5 372.5q0 219 154.5 373.5t372.5 154.5q219 0 388 -165v83h127v-947zM1040 422v159q-21 113 -108 200q-116 116 -280 116t-280 -116t-116 -280t116 -279t280 -115t280 115q87 88 108 200zM746 1545
q63 -51 101 -51h4q29 2 47 78h107q-26 -158 -111 -183q-22 -7 -45 -7q-60 0 -119 47q-63 50 -101 50h-3q-30 -2 -48 -77h-108q27 158 112 183q22 6 45 6q60 0 119 -46zM739 1362l263 -259h-157l-163 125l-154 -125h-157l254 259h114z" />
    <glyph glyph-name="uni1EAC" unicode="&#x1eac;" 
d="M823 691l-193 531l-193 -531h386zM869 564h-479l-205 -564h-135l580 1592l579 -1592h-135zM704 -123.5q31 -30.5 31 -73.5q0 -44 -31 -74.5t-74 -30.5t-74 30.5t-31 74.5q0 43 31 73.5t74 30.5t74 -30.5zM683 1839l264 -260h-157l-164 126l-154 -126h-157l254 260h114z
" />
    <glyph glyph-name="uni1EAD" unicode="&#x1ead;" horiz-adv-x="1317" 
d="M1167 0h-127v139q-169 -165 -388 -165q-218 0 -372.5 154.5t-154.5 372.5q0 219 154.5 373.5t372.5 154.5q219 0 388 -165v83h127v-947zM1040 422v159q-21 113 -108 200q-116 116 -280 116t-280 -116t-116 -280t116 -279t280 -115t280 115q87 88 108 200zM710 -123.5
q31 -30.5 31 -73.5q0 -44 -31 -74.5t-74 -30.5t-74 30.5t-31 74.5q0 43 31 73.5t74 30.5t74 -30.5zM739 1362l263 -259h-157l-163 125l-154 -125h-157l254 259h114z" />
    <glyph glyph-name="uni1EAE" unicode="&#x1eae;" 
d="M823 691l-193 531l-193 -531h386zM869 564h-479l-205 -564h-135l580 1592l579 -1592h-135zM981 2110l-283 -216h-133l188 216h228zM499 1893q9 -60 39 -90q38 -38 91 -38t91 38q30 30 38 90h111q-11 -108 -71 -169q-69 -70 -169 -70t-169 70q-66 67 -71 169h110z" />
    <glyph glyph-name="uni1EAF" unicode="&#x1eaf;" horiz-adv-x="1317" 
d="M1167 0h-127v139q-169 -165 -388 -165q-218 0 -372.5 154.5t-154.5 372.5q0 219 154.5 373.5t372.5 154.5q219 0 388 -165v83h127v-947zM1040 422v159q-21 113 -108 200q-116 116 -280 116t-280 -116t-116 -280t116 -279t280 -115t280 115q87 88 108 200zM1003 1589
l-283 -216h-133l188 216h228zM516 1375q9 -60 39 -90q38 -38 91 -38t91 38q30 30 38 90h111q-11 -108 -71 -169q-69 -70 -169 -70t-169 70q-66 67 -71 169h110z" />
    <glyph glyph-name="uni1EB0" unicode="&#x1eb0;" 
d="M823 691l-193 531l-193 -531h386zM869 564h-479l-205 -564h-135l580 1592l579 -1592h-135zM536 2101l188 -216h-133l-283 216h228zM499 1893q9 -60 39 -90q38 -38 91 -38t91 38q30 30 38 90h111q-11 -108 -71 -169q-69 -70 -169 -70t-169 70q-66 67 -71 169h110z" />
    <glyph glyph-name="uni1EB1" unicode="&#x1eb1;" horiz-adv-x="1317" 
d="M1167 0h-127v139q-169 -165 -388 -165q-218 0 -372.5 154.5t-154.5 372.5q0 219 154.5 373.5t372.5 154.5q219 0 388 -165v83h127v-947zM1040 422v159q-21 113 -108 200q-116 116 -280 116t-280 -116t-116 -280t116 -279t280 -115t280 115q87 88 108 200zM557 1579
l188 -216h-133l-283 216h228zM516 1375q9 -60 39 -90q38 -38 91 -38t91 38q30 30 38 90h111q-11 -108 -71 -169q-69 -70 -169 -70t-169 70q-66 67 -71 169h110z" />
    <glyph glyph-name="uni1EB2" unicode="&#x1eb2;" 
d="M823 691l-193 531l-193 -531h386zM869 564h-479l-205 -564h-135l580 1592l579 -1592h-135zM585 1867q0 45 22 88q34 71 101 121q31 31 45 60q7 15 7 31q0 11 -4 23q-9 27 -33 38q-13 6 -25 6q-9 0 -19 -3q-25 -9 -36 -33q-7 -15 -7 -61l-103 5v31q0 31 15 61q30 61 94 83
q29 10 57 10q38 0 73 -17q61 -30 83 -92q9 -26 9 -52q0 -34 -16 -67q-27 -55 -86 -102q-40 -35 -61 -79q-8 -17 -11 -33zM499 1893q9 -60 39 -90q38 -38 91 -38t91 38q30 30 38 90h111q-11 -108 -71 -169q-69 -70 -169 -70t-169 70q-66 67 -71 169h110z" />
    <glyph glyph-name="uni1EB3" unicode="&#x1eb3;" horiz-adv-x="1317" 
d="M1167 0h-127v139q-169 -165 -388 -165q-218 0 -372.5 154.5t-154.5 372.5q0 219 154.5 373.5t372.5 154.5q219 0 388 -165v83h127v-947zM1040 422v159q-21 113 -108 200q-116 116 -280 116t-280 -116t-116 -280t116 -279t280 -115t280 115q87 88 108 200zM590 1360
q5 30 20 60q34 71 101 121q31 31 45 60q7 15 7 31q0 11 -4 23q-9 27 -33 38q-13 6 -25 6q-9 0 -19 -3q-25 -9 -36 -33q-7 -15 -7 -61l-103 5v31q0 31 15 61q30 61 94 83q29 10 57 10q38 0 73 -17q61 -30 83 -92q9 -26 9 -52q0 -34 -16 -67q-27 -55 -86 -102q-40 -35 -61 -79
q-7 -14 -10 -27zM516 1375q9 -60 39 -90q38 -38 91 -38t91 38q30 30 38 90h111q-11 -108 -71 -169q-69 -70 -169 -70t-169 70q-66 67 -71 169h110z" />
    <glyph glyph-name="uni1EB4" unicode="&#x1eb4;" 
d="M823 691l-193 531l-193 -531h386zM869 564h-479l-205 -564h-135l580 1592l579 -1592h-135zM688 2092q63 -50 100 -50h4q29 2 48 77h107q-26 -158 -111 -183q-23 -6 -45 -6q-60 0 -119 47q-63 49 -101 49h-4q-29 -1 -48 -77h-107q27 158 112 183q22 7 44 7q60 0 120 -47z
M499 1893q9 -60 39 -90q38 -38 91 -38t91 38q30 30 38 90h111q-11 -108 -71 -169q-69 -70 -169 -70t-169 70q-66 67 -71 169h110z" />
    <glyph glyph-name="uni1EB5" unicode="&#x1eb5;" horiz-adv-x="1317" 
d="M1167 0h-127v139q-169 -165 -388 -165q-218 0 -372.5 154.5t-154.5 372.5q0 219 154.5 373.5t372.5 154.5q219 0 388 -165v83h127v-947zM1040 422v159q-21 113 -108 200q-116 116 -280 116t-280 -116t-116 -280t116 -279t280 -115t280 115q87 88 108 200zM716 1575
q63 -51 101 -51h4q29 2 47 78h107q-26 -158 -111 -183q-22 -7 -45 -7q-60 0 -119 47q-63 50 -101 50h-3q-30 -2 -48 -77h-108q27 158 112 183q22 6 45 6q60 0 119 -46zM516 1375q9 -60 39 -90q38 -38 91 -38t91 38q30 30 38 90h111q-11 -108 -71 -169q-69 -70 -169 -70
t-169 70q-66 67 -71 169h110z" />
    <glyph glyph-name="uni1EB6" unicode="&#x1eb6;" 
d="M823 691l-193 531l-193 -531h386zM869 564h-479l-205 -564h-135l580 1592l579 -1592h-135zM704 -123.5q31 -30.5 31 -73.5q0 -44 -31 -74.5t-74 -30.5t-74 30.5t-31 74.5q0 43 31 73.5t74 30.5t74 -30.5zM499 1893q9 -60 39 -90q38 -38 91 -38t91 38q30 30 38 90h111
q-11 -108 -71 -169q-69 -70 -169 -70t-169 70q-66 67 -71 169h110z" />
    <glyph glyph-name="uni1EB7" unicode="&#x1eb7;" horiz-adv-x="1317" 
d="M1167 0h-127v139q-169 -165 -388 -165q-218 0 -372.5 154.5t-154.5 372.5q0 219 154.5 373.5t372.5 154.5q219 0 388 -165v83h127v-947zM1040 422v159q-21 113 -108 200q-116 116 -280 116t-280 -116t-116 -280t116 -279t280 -115t280 115q87 88 108 200zM710 -123.5
q31 -30.5 31 -73.5q0 -44 -31 -74.5t-74 -30.5t-74 30.5t-31 74.5q0 43 31 73.5t74 30.5t74 -30.5zM516 1375q9 -60 39 -90q38 -38 91 -38t91 38q30 30 38 90h111q-11 -108 -71 -169q-69 -70 -169 -70t-169 70q-66 67 -71 169h110z" />
    <glyph glyph-name="uni1EB8" unicode="&#x1eb8;" horiz-adv-x="1055" 
d="M930 1516v-127h-653v-568h653v-126h-653v-568h653v-127h-780v1516h780zM614 -123.5q31 -30.5 31 -73.5q0 -44 -31 -74.5t-74 -30.5t-74 30.5t-31 74.5q0 43 31 73.5t74 30.5t74 -30.5z" />
    <glyph glyph-name="uni1EB9" unicode="&#x1eb9;" horiz-adv-x="1154" 
d="M371 192q94 -85 246 -85q164 0 280 115q15 15 38 43l129 -46q-42 -59 -73 -90q-155 -155 -374 -155q-218 0 -372.5 154.5t-154.5 373.5q0 218 154.5 372.5t372.5 154.5q187 0 328 -112q23 -19 46 -42q8 -9 30 -33l-77 -77zM834 834q-82 63 -217 63q-163 0 -279 -115.5
t-116 -279.5q0 -135 63 -217zM710 -123.5q31 -30.5 31 -73.5q0 -44 -31 -74.5t-74 -30.5t-74 30.5t-31 74.5q0 43 31 73.5t74 30.5t74 -30.5z" />
    <glyph glyph-name="uni1EBA" unicode="&#x1eba;" horiz-adv-x="1055" 
d="M930 1516v-127h-653v-568h653v-126h-653v-568h653v-127h-780v1516h780zM475 1606q0 45 22 88q34 71 101 121q31 31 45 60q7 15 7 31q0 11 -4 23q-9 27 -33 38q-13 6 -25 6q-9 0 -19 -3q-25 -9 -36 -33q-7 -15 -7 -61l-103 5v31q0 31 15 61q30 61 94 83q29 10 57 10
q38 0 73 -17q61 -30 83 -92q9 -26 9 -52q0 -34 -16 -67q-27 -55 -86 -102q-40 -35 -61 -79q-8 -17 -11 -33z" />
    <glyph glyph-name="uni1EBB" unicode="&#x1ebb;" horiz-adv-x="1154" 
d="M371 192q94 -85 246 -85q164 0 280 115q15 15 38 43l129 -46q-42 -59 -73 -90q-155 -155 -374 -155q-218 0 -372.5 154.5t-154.5 373.5q0 218 154.5 372.5t372.5 154.5q187 0 328 -112q23 -19 46 -42q8 -9 30 -33l-77 -77zM834 834q-82 63 -217 63q-163 0 -279 -115.5
t-116 -279.5q0 -135 63 -217zM490 1089q5 30 20 60q34 71 101 121q31 31 45 60q7 15 7 31q0 11 -4 23q-9 27 -33 38q-13 6 -25 6q-9 0 -19 -3q-25 -9 -36 -33q-7 -15 -7 -61l-103 5v31q0 31 15 61q30 61 94 83q29 10 57 10q38 0 73 -17q61 -30 83 -92q9 -26 9 -52
q0 -34 -16 -67q-27 -55 -86 -102q-40 -35 -61 -79q-7 -14 -10 -27z" />
    <glyph glyph-name="uni1EBC" unicode="&#x1ebc;" horiz-adv-x="1055" 
d="M930 1516v-127h-653v-568h653v-126h-653v-568h653v-127h-780v1516h780zM578 1770q63 -50 100 -50h4q29 2 48 77h107q-26 -158 -111 -183q-23 -6 -45 -6q-60 0 -119 47q-63 49 -101 49h-4q-29 -1 -48 -77h-107q27 158 112 183q22 7 44 7q60 0 120 -47z" />
    <glyph glyph-name="uni1EBD" unicode="&#x1ebd;" horiz-adv-x="1154" 
d="M371 192q94 -85 246 -85q164 0 280 115q15 15 38 43l129 -46q-42 -59 -73 -90q-155 -155 -374 -155q-218 0 -372.5 154.5t-154.5 373.5q0 218 154.5 372.5t372.5 154.5q187 0 328 -112q23 -19 46 -42q8 -9 30 -33l-77 -77zM834 834q-82 63 -217 63q-163 0 -279 -115.5
t-116 -279.5q0 -135 63 -217zM625 1294q63 -51 101 -51h4q29 2 47 78h107q-26 -158 -111 -183q-22 -7 -45 -7q-60 0 -119 47q-63 50 -101 50h-3q-30 -2 -48 -77h-108q27 158 112 183q22 6 45 6q60 0 119 -46z" />
    <glyph glyph-name="uni1EBE" unicode="&#x1ebe;" horiz-adv-x="1055" 
d="M930 1516v-127h-653v-568h653v-126h-653v-568h653v-127h-780v1516h780zM1098 2011l-283 -216h-134l189 216h228zM594 1835l264 -260h-157l-163 126l-155 -126h-157l254 260h114z" />
    <glyph glyph-name="uni1EBF" unicode="&#x1ebf;" horiz-adv-x="1243" 
d="M371 192q94 -85 246 -85q164 0 280 115q15 15 38 43l129 -46q-42 -59 -73 -90q-155 -155 -374 -155q-218 0 -372.5 154.5t-154.5 373.5q0 218 154.5 372.5t372.5 154.5q187 0 328 -112q23 -19 46 -42q8 -9 30 -33l-77 -77zM834 834q-82 63 -217 63q-163 0 -279 -115.5
t-116 -279.5q0 -135 63 -217zM1179 1529l-283 -216h-133l188 216h228zM666 1362l263 -259h-157l-163 125l-154 -125h-157l254 259h114z" />
    <glyph glyph-name="uni1EC0" unicode="&#x1ec0;" horiz-adv-x="1055" 
d="M930 1516v-127h-653v-568h653v-126h-653v-568h653v-127h-780v1516h780zM662 2001l189 -216h-134l-283 216h228zM594 1835l264 -260h-157l-163 126l-155 -126h-157l254 260h114z" />
    <glyph glyph-name="uni1EC1" unicode="&#x1ec1;" horiz-adv-x="1243" 
d="M371 192q94 -85 246 -85q164 0 280 115q15 15 38 43l129 -46q-42 -59 -73 -90q-155 -155 -374 -155q-218 0 -372.5 154.5t-154.5 373.5q0 218 154.5 372.5t372.5 154.5q187 0 328 -112q23 -19 46 -42q8 -9 30 -33l-77 -77zM834 834q-82 63 -217 63q-163 0 -279 -115.5
t-116 -279.5q0 -135 63 -217zM733 1539l188 -216h-133l-283 216h228zM666 1362l263 -259h-157l-163 125l-154 -125h-157l254 259h114z" />
    <glyph glyph-name="uni1EC2" unicode="&#x1ec2;" horiz-adv-x="1055" 
d="M930 1516v-127h-653v-568h653v-126h-653v-568h653v-127h-780v1516h780zM685 1787q0 45 22 88q34 71 101 121q31 31 45 60q7 15 7 31q0 11 -4 23q-9 27 -33 38q-13 6 -25 6q-9 0 -19 -3q-25 -9 -36 -33q-7 -15 -7 -61l-103 5v31q0 31 15 61q30 61 94 83q29 10 57 10
q38 0 73 -17q61 -30 83 -92q9 -26 9 -52q0 -34 -16 -67q-27 -55 -86 -102q-40 -35 -61 -79q-8 -17 -11 -33zM594 1835l264 -260h-157l-163 126l-155 -126h-157l254 260h114z" />
    <glyph glyph-name="uni1EC3" unicode="&#x1ec3;" horiz-adv-x="1154" 
d="M371 192q94 -85 246 -85q164 0 280 115q15 15 38 43l129 -46q-42 -59 -73 -90q-155 -155 -374 -155q-218 0 -372.5 154.5t-154.5 373.5q0 218 154.5 372.5t372.5 154.5q187 0 328 -112q23 -19 46 -42q8 -9 30 -33l-77 -77zM834 834q-82 63 -217 63q-163 0 -279 -115.5
t-116 -279.5q0 -135 63 -217zM771 1310q5 30 20 60q34 71 101 121q31 31 45 60q7 15 7 31q0 11 -4 23q-9 27 -33 38q-13 6 -25 6q-9 0 -19 -3q-25 -9 -36 -33q-7 -15 -7 -61l-103 5v31q0 31 15 61q30 61 94 83q29 10 57 10q38 0 73 -17q61 -30 83 -92q9 -26 9 -52
q0 -34 -16 -67q-27 -55 -86 -102q-40 -35 -61 -79q-7 -14 -10 -27zM666 1362l263 -259h-157l-163 125l-154 -125h-157l254 259h114z" />
    <glyph glyph-name="uni1EC4" unicode="&#x1ec4;" horiz-adv-x="1055" 
d="M930 1516v-127h-653v-568h653v-126h-653v-568h653v-127h-780v1516h780zM598 2010q63 -50 100 -50h4q29 2 48 77h107q-26 -158 -111 -183q-23 -6 -45 -6q-60 0 -119 47q-63 49 -101 49h-4q-29 -1 -48 -77h-107q27 158 112 183q22 7 44 7q60 0 120 -47zM594 1835l264 -260
h-157l-163 126l-155 -126h-157l254 260h114z" />
    <glyph glyph-name="uni1EC5" unicode="&#x1ec5;" horiz-adv-x="1154" 
d="M371 192q94 -85 246 -85q164 0 280 115q15 15 38 43l129 -46q-42 -59 -73 -90q-155 -155 -374 -155q-218 0 -372.5 154.5t-154.5 373.5q0 218 154.5 372.5t372.5 154.5q187 0 328 -112q23 -19 46 -42q8 -9 30 -33l-77 -77zM834 834q-82 63 -217 63q-163 0 -279 -115.5
t-116 -279.5q0 -135 63 -217zM665 1545q63 -51 101 -51h4q29 2 47 78h107q-26 -158 -111 -183q-22 -7 -45 -7q-60 0 -119 47q-63 50 -101 50h-3q-30 -2 -48 -77h-108q27 158 112 183q22 6 45 6q60 0 119 -46zM666 1362l263 -259h-157l-163 125l-154 -125h-157l254 259h114z
" />
    <glyph glyph-name="uni1EC6" unicode="&#x1ec6;" horiz-adv-x="1055" 
d="M930 1516v-127h-653v-568h653v-126h-653v-568h653v-127h-780v1516h780zM614 -123.5q31 -30.5 31 -73.5q0 -44 -31 -74.5t-74 -30.5t-74 30.5t-31 74.5q0 43 31 73.5t74 30.5t74 -30.5zM594 1835l264 -260h-157l-163 126l-155 -126h-157l254 260h114z" />
    <glyph glyph-name="uni1EC7" unicode="&#x1ec7;" horiz-adv-x="1154" 
d="M371 192q94 -85 246 -85q164 0 280 115q15 15 38 43l129 -46q-42 -59 -73 -90q-155 -155 -374 -155q-218 0 -372.5 154.5t-154.5 373.5q0 218 154.5 372.5t372.5 154.5q187 0 328 -112q23 -19 46 -42q8 -9 30 -33l-77 -77zM834 834q-82 63 -217 63q-163 0 -279 -115.5
t-116 -279.5q0 -135 63 -217zM710 -123.5q31 -30.5 31 -73.5q0 -44 -31 -74.5t-74 -30.5t-74 30.5t-31 74.5q0 43 31 73.5t74 30.5t74 -30.5zM666 1362l263 -259h-157l-163 125l-154 -125h-157l254 259h114z" />
    <glyph glyph-name="uni1EC8" unicode="&#x1ec8;" horiz-adv-x="467" 
d="M297 1516v-1516h-127v1516h127zM173 1636q0 45 22 88q34 71 101 121q31 31 45 60q7 15 7 31q0 11 -4 23q-9 27 -33 38q-13 6 -25 6q-9 0 -19 -3q-25 -9 -36 -33q-7 -15 -7 -61l-103 5v31q0 31 15 61q30 61 94 83q29 10 57 10q38 0 73 -17q61 -30 83 -92q9 -26 9 -52
q0 -34 -16 -67q-27 -55 -86 -102q-40 -35 -61 -79q-8 -17 -11 -33z" />
    <glyph glyph-name="uni1EC9" unicode="&#x1ec9;" horiz-adv-x="460" 
d="M293 947v-947h-127v947h127zM168 1089q5 30 20 60q34 71 101 121q31 31 45 60q7 15 7 31q0 11 -4 23q-9 27 -33 38q-13 6 -25 6q-9 0 -19 -3q-25 -9 -36 -33q-7 -15 -7 -61l-103 5v31q0 31 15 61q30 61 94 83q29 10 57 10q38 0 73 -17q61 -30 83 -92q9 -26 9 -52
q0 -34 -16 -67q-27 -55 -86 -102q-40 -35 -61 -79q-7 -14 -10 -27z" />
    <glyph glyph-name="uni1ECA" unicode="&#x1eca;" horiz-adv-x="467" 
d="M297 1516v-1516h-127v1516h127zM303 -123.5q31 -30.5 31 -73.5q0 -44 -31 -74.5t-74 -30.5t-74 30.5t-31 74.5q0 43 31 73.5t74 30.5t74 -30.5z" />
    <glyph glyph-name="uni1ECB" unicode="&#x1ecb;" horiz-adv-x="460" 
d="M288 947v-947h-127v947h127zM304 1237.5q31 -30.5 31 -73.5q0 -44 -31 -74.5t-74 -30.5t-74 30.5t-31 74.5q0 43 31 73.5t74 30.5t74 -30.5zM298 -123.5q31 -30.5 31 -73.5q0 -44 -31 -74.5t-74 -30.5t-74 30.5t-31 74.5q0 43 31 73.5t74 30.5t74 -30.5z" />
    <glyph glyph-name="uni1ECC" unicode="&#x1ecc;" horiz-adv-x="1805" 
d="M1452 1309.5q228 -227.5 228 -549.5t-228 -549.5t-550 -227.5t-549.5 227.5t-227.5 549.5t227.5 549.5t549.5 227.5t550 -227.5zM902 1409q-268 0 -458 -190t-190 -459t190 -459.5t458 -190.5q269 0 459 190.5t190 459.5t-190 459t-459 190zM977 -123.5
q31 -30.5 31 -73.5q0 -44 -31 -74.5t-74 -30.5t-74 30.5t-31 74.5q0 43 31 73.5t74 30.5t74 -30.5z" />
    <glyph glyph-name="uni1ECD" unicode="&#x1ecd;" horiz-adv-x="1234" 
d="M617 1029q219 0 373 -154.5t154 -373.5q0 -218 -154 -372.5t-373 -154.5q-218 0 -372.5 154.5t-154.5 372.5q0 219 154.5 373.5t372.5 154.5zM337 781q-116 -116 -116 -280t116 -279t280 -115t280 115t116 279t-116 280t-280 116t-280 -116zM691 -123.5
q31 -30.5 31 -73.5q0 -44 -31 -74.5t-74 -30.5t-74 30.5t-31 74.5q0 43 31 73.5t74 30.5t74 -30.5z" />
    <glyph glyph-name="uni1ECE" unicode="&#x1ece;" horiz-adv-x="1805" 
d="M1452 1309.5q228 -227.5 228 -549.5t-228 -549.5t-550 -227.5t-549.5 227.5t-227.5 549.5t227.5 549.5t549.5 227.5t550 -227.5zM902 1409q-268 0 -458 -190t-190 -459t190 -459.5t458 -190.5q269 0 459 190.5t190 459.5t-190 459t-459 190zM806 1606q0 45 22 88
q34 71 101 121q31 31 45 60q7 15 7 31q0 11 -4 23q-9 27 -33 38q-13 6 -25 6q-9 0 -19 -3q-25 -9 -36 -33q-7 -15 -7 -61l-103 5v31q0 31 15 61q30 61 94 83q29 10 57 10q38 0 73 -17q61 -30 83 -92q9 -26 9 -52q0 -34 -16 -67q-27 -55 -86 -102q-40 -35 -61 -79
q-8 -17 -11 -33z" />
    <glyph glyph-name="uni1ECF" unicode="&#x1ecf;" horiz-adv-x="1234" 
d="M617 1029q219 0 373 -154.5t154 -373.5q0 -218 -154 -372.5t-373 -154.5q-218 0 -372.5 154.5t-154.5 372.5q0 219 154.5 373.5t372.5 154.5zM337 781q-116 -116 -116 -280t116 -279t280 -115t280 115t116 279t-116 280t-280 116t-280 -116zM490 1089q5 30 20 60
q34 71 101 121q31 31 45 60q7 15 7 31q0 11 -4 23q-9 27 -33 38q-13 6 -25 6q-9 0 -19 -3q-25 -9 -36 -33q-7 -15 -7 -61l-103 5v31q0 31 15 61q30 61 94 83q29 10 57 10q38 0 73 -17q61 -30 83 -92q9 -26 9 -52q0 -34 -16 -67q-27 -55 -86 -102q-40 -35 -61 -79
q-7 -14 -10 -27z" />
    <glyph glyph-name="uni1ED0" unicode="&#x1ed0;" horiz-adv-x="1805" 
d="M1452 1309.5q228 -227.5 228 -549.5t-228 -549.5t-550 -227.5t-549.5 227.5t-227.5 549.5t227.5 549.5t549.5 227.5t550 -227.5zM902 1409q-268 0 -458 -190t-190 -459t190 -459.5t458 -190.5q269 0 459 190.5t190 459.5t-190 459t-459 190zM1460 2062l-283 -216h-133
l188 216h228zM956 1885l264 -260h-157l-163 126l-155 -126h-156l253 260h114z" />
    <glyph glyph-name="uni1ED1" unicode="&#x1ed1;" horiz-adv-x="1234" 
d="M617 1029q219 0 373 -154.5t154 -373.5q0 -218 -154 -372.5t-373 -154.5q-218 0 -372.5 154.5t-154.5 372.5q0 219 154.5 373.5t372.5 154.5zM337 781q-116 -116 -116 -280t116 -279t280 -115t280 115t116 279t-116 280t-280 116t-280 -116zM1175 1539l-283 -216h-133
l188 216h228zM671 1362l264 -259h-157l-163 125l-155 -125h-157l254 259h114z" />
    <glyph glyph-name="uni1ED2" unicode="&#x1ed2;" horiz-adv-x="1805" 
d="M1452 1309.5q228 -227.5 228 -549.5t-228 -549.5t-550 -227.5t-549.5 227.5t-227.5 549.5t227.5 549.5t549.5 227.5t550 -227.5zM902 1409q-268 0 -458 -190t-190 -459t190 -459.5t458 -190.5q269 0 459 190.5t190 459.5t-190 459t-459 190zM1035 2052l188 -216h-133
l-283 216h228zM956 1885l264 -260h-157l-163 126l-155 -126h-156l253 260h114z" />
    <glyph glyph-name="uni1ED3" unicode="&#x1ed3;" horiz-adv-x="1234" 
d="M617 1029q219 0 373 -154.5t154 -373.5q0 -218 -154 -372.5t-373 -154.5q-218 0 -372.5 154.5t-154.5 372.5q0 219 154.5 373.5t372.5 154.5zM337 781q-116 -116 -116 -280t116 -279t280 -115t280 115t116 279t-116 280t-280 116t-280 -116zM758 1529l189 -216h-133
l-283 216h227zM671 1362l264 -259h-157l-163 125l-155 -125h-157l254 259h114z" />
    <glyph glyph-name="uni1ED4" unicode="&#x1ed4;" horiz-adv-x="1805" 
d="M1452 1309.5q228 -227.5 228 -549.5t-228 -549.5t-550 -227.5t-549.5 227.5t-227.5 549.5t227.5 549.5t549.5 227.5t550 -227.5zM902 1409q-268 0 -458 -190t-190 -459t190 -459.5t458 -190.5q269 0 459 190.5t190 459.5t-190 459t-459 190zM1077 1817q0 45 22 88
q34 71 101 121q31 31 45 60q7 15 7 31q0 11 -4 23q-9 27 -33 38q-13 6 -25 6q-9 0 -19 -3q-25 -9 -36 -33q-7 -15 -7 -61l-103 5v31q0 31 15 61q30 61 94 83q29 10 57 10q38 0 73 -17q61 -30 83 -92q9 -26 9 -52q0 -34 -16 -67q-27 -55 -86 -102q-40 -35 -61 -79
q-8 -17 -11 -33zM956 1885l264 -260h-157l-163 126l-155 -126h-156l253 260h114z" />
    <glyph glyph-name="uni1ED5" unicode="&#x1ed5;" horiz-adv-x="1234" 
d="M617 1029q219 0 373 -154.5t154 -373.5q0 -218 -154 -372.5t-373 -154.5q-218 0 -372.5 154.5t-154.5 372.5q0 219 154.5 373.5t372.5 154.5zM337 781q-116 -116 -116 -280t116 -279t280 -115t280 115t116 279t-116 280t-280 116t-280 -116zM771 1320q5 30 20 60
q34 71 101 121q31 31 45 60q7 15 7 31q0 11 -4 23q-9 27 -33 38q-13 6 -25 6q-9 0 -19 -3q-25 -9 -36 -33q-7 -15 -7 -61l-103 5v31q0 31 15 61q30 61 94 83q29 10 57 10q38 0 73 -17q61 -30 83 -92q9 -26 9 -52q0 -34 -16 -67q-27 -55 -86 -102q-40 -35 -61 -79
q-7 -14 -10 -27zM671 1362l264 -259h-157l-163 125l-155 -125h-157l254 259h114z" />
    <glyph glyph-name="uni1ED6" unicode="&#x1ed6;" horiz-adv-x="1805" 
d="M1452 1309.5q228 -227.5 228 -549.5t-228 -549.5t-550 -227.5t-549.5 227.5t-227.5 549.5t227.5 549.5t549.5 227.5t550 -227.5zM902 1409q-268 0 -458 -190t-190 -459t190 -459.5t458 -190.5q269 0 459 190.5t190 459.5t-190 459t-459 190zM981 2070q63 -51 101 -51h4
q29 2 48 78h106q-26 -158 -111 -183q-22 -7 -44 -7q-61 0 -120 47q-63 50 -100 50h-4q-29 -2 -48 -77h-108q27 158 112 183q23 6 45 6q60 0 119 -46zM956 1885l264 -260h-157l-163 126l-155 -126h-156l253 260h114z" />
    <glyph glyph-name="uni1ED7" unicode="&#x1ed7;" horiz-adv-x="1234" 
d="M617 1029q219 0 373 -154.5t154 -373.5q0 -218 -154 -372.5t-373 -154.5q-218 0 -372.5 154.5t-154.5 372.5q0 219 154.5 373.5t372.5 154.5zM337 781q-116 -116 -116 -280t116 -279t280 -115t280 115t116 279t-116 280t-280 116t-280 -116zM686 1545q63 -51 101 -51h4
q29 2 47 78h107q-26 -158 -111 -183q-22 -7 -45 -7q-60 0 -119 47q-63 50 -101 50h-4q-29 -2 -47 -77h-108q27 158 112 183q22 6 45 6q60 0 119 -46zM671 1362l264 -259h-157l-163 125l-155 -125h-157l254 259h114z" />
    <glyph glyph-name="uni1ED8" unicode="&#x1ed8;" horiz-adv-x="1805" 
d="M1452 1309.5q228 -227.5 228 -549.5t-228 -549.5t-550 -227.5t-549.5 227.5t-227.5 549.5t227.5 549.5t549.5 227.5t550 -227.5zM902 1409q-268 0 -458 -190t-190 -459t190 -459.5t458 -190.5q269 0 459 190.5t190 459.5t-190 459t-459 190zM977 -123.5
q31 -30.5 31 -73.5q0 -44 -31 -74.5t-74 -30.5t-74 30.5t-31 74.5q0 43 31 73.5t74 30.5t74 -30.5zM956 1885l264 -260h-157l-163 126l-155 -126h-156l253 260h114z" />
    <glyph glyph-name="uni1ED9" unicode="&#x1ed9;" horiz-adv-x="1234" 
d="M617 1029q219 0 373 -154.5t154 -373.5q0 -218 -154 -372.5t-373 -154.5q-218 0 -372.5 154.5t-154.5 372.5q0 219 154.5 373.5t372.5 154.5zM337 781q-116 -116 -116 -280t116 -279t280 -115t280 115t116 279t-116 280t-280 116t-280 -116zM691 -123.5
q31 -30.5 31 -73.5q0 -44 -31 -74.5t-74 -30.5t-74 30.5t-31 74.5q0 43 31 73.5t74 30.5t74 -30.5zM671 1362l264 -259h-157l-163 125l-155 -125h-157l254 259h114z" />
    <glyph glyph-name="uni1EDA" unicode="&#x1eda;" horiz-adv-x="1805" 
d="M902 1409q-268 0 -458 -190t-190 -459t190 -459.5t458 -190.5q269 0 459 190.5t190 459.5t-190 459t-459 190zM1169 1851l-283 -216h-133l188 216h228zM1498 1260q182 -212 182 -500q0 -322 -228 -549.5t-550 -227.5t-549.5 227.5t-227.5 549.5t227.5 549.5t549.5 227.5
t550 -227q6 -7 13 -14l59 221h132l-124 -257h-34z" />
    <glyph glyph-name="uni1EDB" unicode="&#x1edb;" horiz-adv-x="1234" 
d="M337 781q-116 -116 -116 -280t116 -279t280 -115t280 115t116 279t-116 280t-280 116t-280 -116zM884 1328l-283 -216h-133l188 216h228zM1099 719q45 -100 45 -218q0 -218 -154 -372.5t-373 -154.5q-218 0 -372.5 154.5t-154.5 372.5q0 219 154.5 373.5t372.5 154.5
q219 0 373 -154q54 -55 89 -117l59 218h132l-124 -257h-47z" />
    <glyph glyph-name="uni1EDC" unicode="&#x1edc;" horiz-adv-x="1805" 
d="M902 1409q-268 0 -458 -190t-190 -459t190 -459.5t458 -190.5q269 0 459 190.5t190 459.5t-190 459t-459 190zM864 1851l188 -216h-133l-283 216h228zM1498 1260q182 -212 182 -500q0 -322 -228 -549.5t-550 -227.5t-549.5 227.5t-227.5 549.5t227.5 549.5t549.5 227.5
t550 -227q6 -7 13 -14l59 221h132l-124 -257h-34z" />
    <glyph glyph-name="uni1EDD" unicode="&#x1edd;" horiz-adv-x="1234" 
d="M337 781q-116 -116 -116 -280t116 -279t280 -115t280 115t116 279t-116 280t-280 116t-280 -116zM578 1328l189 -216h-133l-283 216h227zM1099 719q45 -100 45 -218q0 -218 -154 -372.5t-373 -154.5q-218 0 -372.5 154.5t-154.5 372.5q0 219 154.5 373.5t372.5 154.5
q219 0 373 -154q54 -55 89 -117l59 218h132l-124 -257h-47z" />
    <glyph glyph-name="uni1EDE" unicode="&#x1ede;" horiz-adv-x="1805" 
d="M902 1409q-268 0 -458 -190t-190 -459t190 -459.5t458 -190.5q269 0 459 190.5t190 459.5t-190 459t-459 190zM806 1606q0 45 22 88q34 71 101 121q31 31 45 60q7 15 7 31q0 11 -4 23q-9 27 -33 38q-13 6 -25 6q-9 0 -19 -3q-25 -9 -36 -33q-7 -15 -7 -61l-103 5v31
q0 31 15 61q30 61 94 83q29 10 57 10q38 0 73 -17q61 -30 83 -92q9 -26 9 -52q0 -34 -16 -67q-27 -55 -86 -102q-40 -35 -61 -79q-8 -17 -11 -33zM1498 1260q182 -212 182 -500q0 -322 -228 -549.5t-550 -227.5t-549.5 227.5t-227.5 549.5t227.5 549.5t549.5 227.5t550 -227
q6 -7 13 -14l59 221h132l-124 -257h-34z" />
    <glyph glyph-name="uni1EDF" unicode="&#x1edf;" horiz-adv-x="1234" 
d="M337 781q-116 -116 -116 -280t116 -279t280 -115t280 115t116 279t-116 280t-280 116t-280 -116zM490 1089q5 30 20 60q34 71 101 121q31 31 45 60q7 15 7 31q0 11 -4 23q-9 27 -33 38q-13 6 -25 6q-9 0 -19 -3q-25 -9 -36 -33q-7 -15 -7 -61l-103 5v31q0 31 15 61
q30 61 94 83q29 10 57 10q38 0 73 -17q61 -30 83 -92q9 -26 9 -52q0 -34 -16 -67q-27 -55 -86 -102q-40 -35 -61 -79q-7 -14 -10 -27zM1099 719q45 -100 45 -218q0 -218 -154 -372.5t-373 -154.5q-218 0 -372.5 154.5t-154.5 372.5q0 219 154.5 373.5t372.5 154.5
q219 0 373 -154q54 -55 89 -117l59 218h132l-124 -257h-47z" />
    <glyph glyph-name="uni1EE0" unicode="&#x1ee0;" horiz-adv-x="1805" 
d="M902 1409q-268 0 -458 -190t-190 -459t190 -459.5t458 -190.5q269 0 459 190.5t190 459.5t-190 459t-459 190zM911 1789q63 -51 101 -51h4q29 2 48 78h106q-26 -158 -111 -183q-22 -7 -44 -7q-61 0 -120 47q-63 50 -100 50h-4q-29 -2 -48 -77h-108q27 158 112 183
q23 6 45 6q60 0 119 -46zM1498 1260q182 -212 182 -500q0 -322 -228 -549.5t-550 -227.5t-549.5 227.5t-227.5 549.5t227.5 549.5t549.5 227.5t550 -227q6 -7 13 -14l59 221h132l-124 -257h-34z" />
    <glyph glyph-name="uni1EE1" unicode="&#x1ee1;" horiz-adv-x="1234" 
d="M337 781q-116 -116 -116 -280t116 -279t280 -115t280 115t116 279t-116 280t-280 116t-280 -116zM626 1294q63 -51 101 -51h4q29 2 47 78h107q-26 -158 -111 -183q-22 -7 -45 -7q-60 0 -119 47q-63 50 -101 50h-4q-29 -2 -47 -77h-108q27 158 112 183q22 6 45 6
q60 0 119 -46zM1099 719q45 -100 45 -218q0 -218 -154 -372.5t-373 -154.5q-218 0 -372.5 154.5t-154.5 372.5q0 219 154.5 373.5t372.5 154.5q219 0 373 -154q54 -55 89 -117l59 218h132l-124 -257h-47z" />
    <glyph glyph-name="uni1EE2" unicode="&#x1ee2;" horiz-adv-x="1805" 
d="M902 1409q-268 0 -458 -190t-190 -459t190 -459.5t458 -190.5q269 0 459 190.5t190 459.5t-190 459t-459 190zM977 -123.5q31 -30.5 31 -73.5q0 -44 -31 -74.5t-74 -30.5t-74 30.5t-31 74.5q0 43 31 73.5t74 30.5t74 -30.5zM1498 1260q182 -212 182 -500
q0 -322 -228 -549.5t-550 -227.5t-549.5 227.5t-227.5 549.5t227.5 549.5t549.5 227.5t550 -227q6 -7 13 -14l59 221h132l-124 -257h-34z" />
    <glyph glyph-name="uni1EE3" unicode="&#x1ee3;" horiz-adv-x="1234" 
d="M337 781q-116 -116 -116 -280t116 -279t280 -115t280 115t116 279t-116 280t-280 116t-280 -116zM691 -123.5q31 -30.5 31 -73.5q0 -44 -31 -74.5t-74 -30.5t-74 30.5t-31 74.5q0 43 31 73.5t74 30.5t74 -30.5zM1099 719q45 -100 45 -218q0 -218 -154 -372.5t-373 -154.5
q-218 0 -372.5 154.5t-154.5 372.5q0 219 154.5 373.5t372.5 154.5q219 0 373 -154q54 -55 89 -117l59 218h132l-124 -257h-47z" />
    <glyph glyph-name="uni1EE4" unicode="&#x1ee4;" horiz-adv-x="1305" 
d="M1028 1516h127v-1081q-24 -178 -147 -301q-147 -147 -355 -147q-209 0 -356 147.5t-147 354.5v1027h128v-1027q0 -154 110 -264t265 -110q156 0 265.5 110t109.5 264v1027zM727 -123.5q31 -30.5 31 -73.5q0 -44 -31 -74.5t-74 -30.5t-74 30.5t-31 74.5q0 43 31 73.5
t74 30.5t74 -30.5z" />
    <glyph glyph-name="uni1EE5" unicode="&#x1ee5;" horiz-adv-x="1079" 
d="M545 -13q-179 0 -285.5 106.5t-109.5 268.5v587h127v-579q0 -106 77 -180q76 -76 190 -76q105 0 181.5 75t76.5 181v579h127v-587q-3 -162 -109 -268q-107 -107 -275 -107zM614 -123.5q31 -30.5 31 -73.5q0 -44 -31 -74.5t-74 -30.5t-74 30.5t-31 74.5q0 43 31 73.5
t74 30.5t74 -30.5z" />
    <glyph glyph-name="uni1EE6" unicode="&#x1ee6;" horiz-adv-x="1305" 
d="M1028 1516h127v-1081q-24 -178 -147 -301q-147 -147 -355 -147q-209 0 -356 147.5t-147 354.5v1027h128v-1027q0 -154 110 -264t265 -110q156 0 265.5 110t109.5 264v1027zM579 1606q0 45 22 88q34 71 101 121q31 31 45 60q7 15 7 31q0 11 -4 23q-9 27 -33 38
q-13 6 -25 6q-9 0 -19 -3q-25 -9 -36 -33q-7 -15 -7 -61l-103 5v31q0 31 15 61q30 61 94 83q29 10 57 10q38 0 73 -17q61 -30 83 -92q9 -26 9 -52q0 -34 -16 -67q-27 -55 -86 -102q-40 -35 -61 -79q-8 -17 -11 -33z" />
    <glyph glyph-name="uni1EE7" unicode="&#x1ee7;" horiz-adv-x="1079" 
d="M545 -13q-179 0 -285.5 106.5t-109.5 268.5v587h127v-579q0 -106 77 -180q76 -76 190 -76q105 0 181.5 75t76.5 181v579h127v-587q-3 -162 -109 -268q-107 -107 -275 -107zM480 1089q5 30 20 60q34 71 101 121q31 31 45 60q7 15 7 31q0 11 -4 23q-9 27 -33 38
q-13 6 -25 6q-9 0 -19 -3q-25 -9 -36 -33q-7 -15 -7 -61l-103 5v31q0 31 15 61q30 61 94 83q29 10 57 10q38 0 73 -17q61 -30 83 -92q9 -26 9 -52q0 -34 -16 -67q-27 -55 -86 -102q-40 -35 -61 -79q-7 -14 -10 -27z" />
    <glyph glyph-name="uni1EE8" unicode="&#x1ee8;" horiz-adv-x="1305" 
d="M920 1851l-283 -216h-133l188 216h228zM1155 1260v-825q-24 -178 -147 -301q-147 -147 -355 -147q-209 0 -356 147.5t-147 354.5v1027h128v-1027q0 -154 110 -264t265 -110q156 0 265.5 110t109.5 264v1027h127v-159l43 160h132l-124 -257h-51z" />
    <glyph glyph-name="uni1EE9" unicode="&#x1ee9;" horiz-adv-x="1079" 
d="M807 1328l-283 -216h-134l189 216h228zM929 692v-330q-3 -162 -109 -268q-107 -107 -275 -107q-179 0 -285.5 106.5t-109.5 268.5v587h127v-579q0 -106 77 -180q76 -76 190 -76q105 0 181.5 75t76.5 181v579h127v-142l38 142h132l-124 -257h-46z" />
    <glyph glyph-name="uni1EEA" unicode="&#x1eea;" horiz-adv-x="1305" 
d="M613 1851l189 -216h-133l-283 216h227zM1155 1260v-825q-24 -178 -147 -301q-147 -147 -355 -147q-209 0 -356 147.5t-147 354.5v1027h128v-1027q0 -154 110 -264t265 -110q156 0 265.5 110t109.5 264v1027h127v-159l43 160h132l-124 -257h-51z" />
    <glyph glyph-name="uni1EEB" unicode="&#x1eeb;" horiz-adv-x="1079" 
d="M500 1328l189 -216h-133l-283 216h227zM929 692v-330q-3 -162 -109 -268q-107 -107 -275 -107q-179 0 -285.5 106.5t-109.5 268.5v587h127v-579q0 -106 77 -180q76 -76 190 -76q105 0 181.5 75t76.5 181v579h127v-142l38 142h132l-124 -257h-46z" />
    <glyph glyph-name="uni1EEC" unicode="&#x1eec;" horiz-adv-x="1305" 
d="M579 1606q0 45 22 88q34 71 101 121q31 31 45 60q7 15 7 31q0 11 -4 23q-9 27 -33 38q-13 6 -25 6q-9 0 -19 -3q-25 -9 -36 -33q-7 -15 -7 -61l-103 5v31q0 31 15 61q30 61 94 83q29 10 57 10q38 0 73 -17q61 -30 83 -92q9 -26 9 -52q0 -34 -16 -67q-27 -55 -86 -102
q-40 -35 -61 -79q-8 -17 -11 -33zM1155 1260v-825q-24 -178 -147 -301q-147 -147 -355 -147q-209 0 -356 147.5t-147 354.5v1027h128v-1027q0 -154 110 -264t265 -110q156 0 265.5 110t109.5 264v1027h127v-159l43 160h132l-124 -257h-51z" />
    <glyph glyph-name="uni1EED" unicode="&#x1eed;" horiz-adv-x="1079" 
d="M480 1089q5 30 20 60q34 71 101 121q31 31 45 60q7 15 7 31q0 11 -4 23q-9 27 -33 38q-13 6 -25 6q-9 0 -19 -3q-25 -9 -36 -33q-7 -15 -7 -61l-103 5v31q0 31 15 61q30 61 94 83q29 10 57 10q38 0 73 -17q61 -30 83 -92q9 -26 9 -52q0 -34 -16 -67q-27 -55 -86 -102
q-40 -35 -61 -79q-7 -14 -10 -27zM929 692v-330q-3 -162 -109 -268q-107 -107 -275 -107q-179 0 -285.5 106.5t-109.5 268.5v587h127v-579q0 -106 77 -180q76 -76 190 -76q105 0 181.5 75t76.5 181v579h127v-142l38 142h132l-124 -257h-46z" />
    <glyph glyph-name="uni1EEE" unicode="&#x1eee;" horiz-adv-x="1305" 
d="M670 1789q63 -51 101 -51h4q29 2 48 78h106q-26 -158 -111 -183q-22 -7 -44 -7q-61 0 -120 47q-63 50 -100 50h-4q-29 -2 -48 -77h-108q27 158 112 183q23 6 45 6q60 0 119 -46zM1155 1260v-825q-24 -178 -147 -301q-147 -147 -355 -147q-209 0 -356 147.5t-147 354.5
v1027h128v-1027q0 -154 110 -264t265 -110q156 0 265.5 110t109.5 264v1027h127v-159l43 160h132l-124 -257h-51z" />
    <glyph glyph-name="uni1EEF" unicode="&#x1eef;" horiz-adv-x="1079" 
d="M556 1294q63 -51 101 -51h4q29 2 47 78h107q-26 -158 -111 -183q-22 -7 -45 -7q-60 0 -119 47q-63 50 -101 50h-4q-29 -2 -47 -77h-108q27 158 112 183q22 6 45 6q60 0 119 -46zM929 692v-330q-3 -162 -109 -268q-107 -107 -275 -107q-179 0 -285.5 106.5t-109.5 268.5
v587h127v-579q0 -106 77 -180q76 -76 190 -76q105 0 181.5 75t76.5 181v579h127v-142l38 142h132l-124 -257h-46z" />
    <glyph glyph-name="uni1EF0" unicode="&#x1ef0;" horiz-adv-x="1305" 
d="M727 -123.5q31 -30.5 31 -73.5q0 -44 -31 -74.5t-74 -30.5t-74 30.5t-31 74.5q0 43 31 73.5t74 30.5t74 -30.5zM1155 1260v-825q-24 -178 -147 -301q-147 -147 -355 -147q-209 0 -356 147.5t-147 354.5v1027h128v-1027q0 -154 110 -264t265 -110q156 0 265.5 110
t109.5 264v1027h127v-159l43 160h132l-124 -257h-51z" />
    <glyph glyph-name="uni1EF1" unicode="&#x1ef1;" horiz-adv-x="1079" 
d="M614 -123.5q31 -30.5 31 -73.5q0 -44 -31 -74.5t-74 -30.5t-74 30.5t-31 74.5q0 43 31 73.5t74 30.5t74 -30.5zM929 692v-330q-3 -162 -109 -268q-107 -107 -275 -107q-179 0 -285.5 106.5t-109.5 268.5v587h127v-579q0 -106 77 -180q76 -76 190 -76q105 0 181.5 75
t76.5 181v579h127v-142l38 142h132l-124 -257h-46z" />
    <glyph glyph-name="Ygrave" unicode="&#x1ef2;" horiz-adv-x="1272" 
d="M572 611l-522 905h146l440 -763l440 763h146l-523 -905v-611h-127v611zM613 1851l189 -216h-133l-283 216h227z" />
    <glyph glyph-name="ygrave" unicode="&#x1ef3;" horiz-adv-x="1007" 
d="M313 -345h-129l254 534l-363 758h143l286 -617l286 617h141z" />
    <glyph glyph-name="uni1EF4" unicode="&#x1ef4;" horiz-adv-x="1272" 
d="M572 611l-522 905h146l440 -763l440 763h146l-523 -905v-611h-127v611zM710 -123.5q31 -30.5 31 -73.5q0 -44 -31 -74.5t-74 -30.5t-74 30.5t-31 74.5q0 43 31 73.5t74 30.5t74 -30.5z" />
    <glyph glyph-name="uni1EF5" unicode="&#x1ef5;" horiz-adv-x="1007" 
d="M313 -345h-129l254 534l-363 758h143l286 -617l286 617h141zM614 -123.5q31 -30.5 31 -73.5q0 -44 -31 -74.5t-74 -30.5t-74 30.5t-31 74.5q0 43 31 73.5t74 30.5t74 -30.5z" />
    <glyph glyph-name="uni1EF6" unicode="&#x1ef6;" horiz-adv-x="1272" 
d="M572 611l-522 905h146l440 -763l440 763h146l-523 -905v-611h-127v611zM579 1606q0 45 22 88q34 71 101 121q31 31 45 60q7 15 7 31q0 11 -4 23q-9 27 -33 38q-13 6 -25 6q-9 0 -19 -3q-25 -9 -36 -33q-7 -15 -7 -61l-103 5v31q0 31 15 61q30 61 94 83q29 10 57 10
q38 0 73 -17q61 -30 83 -92q9 -26 9 -52q0 -34 -16 -67q-27 -55 -86 -102q-40 -35 -61 -79q-8 -17 -11 -33z" />
    <glyph glyph-name="uni1EF7" unicode="&#x1ef7;" horiz-adv-x="1007" 
d="M313 -345h-129l254 534l-363 758h143l286 -617l286 617h141zM480 1089q5 30 20 60q34 71 101 121q31 31 45 60q7 15 7 31q0 11 -4 23q-9 27 -33 38q-13 6 -25 6q-9 0 -19 -3q-25 -9 -36 -33q-7 -15 -7 -61l-103 5v31q0 31 15 61q30 61 94 83q29 10 57 10q38 0 73 -17
q61 -30 83 -92q9 -26 9 -52q0 -34 -16 -67q-27 -55 -86 -102q-40 -35 -61 -79q-7 -14 -10 -27z" />
    <glyph glyph-name="uni1EF8" unicode="&#x1ef8;" horiz-adv-x="1272" 
d="M572 611l-522 905h146l440 -763l440 763h146l-523 -905v-611h-127v611zM670 1789q63 -51 101 -51h4q29 2 48 78h106q-26 -158 -111 -183q-22 -7 -44 -7q-61 0 -120 47q-63 50 -100 50h-4q-29 -2 -48 -77h-108q27 158 112 183q23 6 45 6q60 0 119 -46z" />
    <glyph glyph-name="uni1EF9" unicode="&#x1ef9;" horiz-adv-x="1007" 
d="M313 -345h-129l254 534l-363 758h143l286 -617l286 617h141zM556 1294q63 -51 101 -51h4q29 2 47 78h107q-26 -158 -111 -183q-22 -7 -45 -7q-60 0 -119 47q-63 50 -101 50h-4q-29 -2 -47 -77h-108q27 158 112 183q22 6 45 6q60 0 119 -46z" />
    <glyph glyph-name="quoteleft" unicode="&#x2018;" horiz-adv-x="311" 
d="M206 1382q2 0 23 -21q31 -31 31 -75q0 -43 -31 -73.5t-74 -30.5t-74 30.5t-31 73.5q0 24 8 45l97 195h105z" />
    <glyph glyph-name="quoteright" unicode="&#x2019;" horiz-adv-x="311" 
d="M105 1326q-3 1 -23 22q-31 30 -31 74t30.5 74t73.5 30q44 0 74.5 -30t30.5 -74q0 -23 -8 -45l-97 -195h-105z" />
    <glyph glyph-name="quotedblleft" unicode="&#x201c;" horiz-adv-x="542" 
d="M206 1382q2 0 23 -21q31 -31 31 -75q0 -43 -31 -73.5t-74 -30.5t-74 30.5t-31 73.5q0 24 8 45l97 195h105zM437 1382q3 0 24 -21q30 -31 30 -75q0 -43 -30.5 -73.5t-73.5 -30.5t-74 30.5t-31 73.5q0 24 8 45l97 195h105z" />
    <glyph glyph-name="quotedblright" unicode="&#x201d;" horiz-adv-x="542" 
d="M105 1326q-3 1 -23 22q-31 30 -31 74t30.5 74t73.5 30q44 0 74.5 -30t30.5 -74q0 -23 -8 -45l-97 -195h-105zM337 1326q-3 1 -23 22q-31 30 -31 74t30.5 74t73.5 30t74 -30t31 -74q0 -23 -8 -45l-97 -195h-105z" />
    <glyph glyph-name="ellipsis" unicode="&#x2026;" horiz-adv-x="2068" 
d="M279 165.5q31 -30.5 31 -73.5q0 -44 -31 -74.5t-74 -30.5t-74 30.5t-31 74.5q0 43 31 73.5t74 30.5t74 -30.5zM907 165.5q31 -30.5 31 -73.5q0 -44 -31 -74.5t-74 -30.5t-74 30.5t-31 74.5q0 43 31 73.5t74 30.5t74 -30.5zM1535.5 165.5q30.5 -30.5 30.5 -73.5
q0 -44 -30.5 -74.5t-73.5 -30.5q-44 0 -74.5 30.5t-30.5 74.5q0 43 30.5 73.5t74.5 30.5q43 0 73.5 -30.5z" />
    <glyph glyph-name="uni25FC" unicode="&#x25fc;" horiz-adv-x="945" 
d="M0 945h945v-945h-945v945z" />
    </font>
</defs>
</svg>
